<svg xmlns="http://www.w3.org/2000/svg" width="32" height="32" viewBox="0 0 32 32" version="1.1"><path d="M 12 1 C 12 1.550, 11.351 2, 10.557 2 C 9.763 2, 8.525 2.817, 7.807 3.816 C 7.088 4.815, 5.790 5.896, 4.923 6.218 C 4.056 6.540, 2.556 8.873, 1.591 11.402 C -0.084 15.787, -0.084 16.213, 1.591 20.598 C 2.556 23.127, 4.056 25.460, 4.923 25.782 C 5.790 26.104, 7.088 27.185, 7.807 28.184 C 8.525 29.183, 9.763 30, 10.557 30 C 11.351 30, 12 30.450, 12 31 C 12 32.401, 16.349 32.251, 17.800 30.800 C 19.469 29.131, 19.469 2.869, 17.800 1.200 C 16.349 -0.251, 12 -0.401, 12 1 M 13 1.941 C 13 2.459, 13.450 3.160, 14 3.500 C 14.550 3.840, 14.986 4.654, 14.970 5.309 C 14.953 5.964, 14.481 5.713, 13.920 4.750 C 12.604 2.491, 10.459 2.519, 8.807 4.816 C 8.088 5.815, 6.661 6.945, 5.637 7.328 C 4.449 7.772, 3.947 8.689, 4.252 9.856 C 4.538 10.951, 3.981 12.155, 2.865 12.852 C 1.839 13.493, 1 14.858, 1 15.886 C 1 17.828, 3.290 20.376, 4.210 19.457 C 4.499 19.167, 4.519 20.066, 4.254 21.453 C 3.904 23.280, 4.285 24.167, 5.636 24.672 C 6.661 25.055, 8.115 26.224, 8.867 27.270 C 9.663 28.377, 10.990 28.974, 12.042 28.699 C 13.283 28.375, 13.683 28.662, 13.318 29.613 C 12.974 30.511, 13.491 31, 14.785 31 C 17.241 31, 18.840 26.149, 16.808 24.860 C 15.921 24.298, 15.878 24.026, 16.675 24.015 C 17.465 24.005, 17.863 21.563, 17.889 16.565 C 17.925 9.671, 17.767 9.098, 15.714 8.701 L 13.500 8.272 15.784 8.136 C 17.697 8.022, 17.995 7.553, 17.616 5.250 C 17.368 3.737, 17.127 2.163, 17.082 1.750 C 16.961 0.648, 13 0.834, 13 1.941 M 20.639 2.694 C 19.444 3.889, 19.994 6, 21.500 6 C 22.325 6, 23 5.352, 23 4.559 C 23 2.888, 21.573 1.761, 20.639 2.694 M 24.446 4.087 C 23.416 5.755, 25.733 7.667, 27.113 6.287 C 28.267 5.133, 27.545 3, 26 3 C 25.515 3, 24.816 3.489, 24.446 4.087 M 10.333 4.667 C 10.700 5.033, 11.300 5.033, 11.667 4.667 C 12.033 4.300, 11.733 4, 11 4 C 10.267 4, 9.967 4.300, 10.333 4.667 M 12 7.500 C 12 7.775, 12.225 8, 12.500 8 C 12.775 8, 13 7.775, 13 7.500 C 13 7.225, 12.775 7, 12.500 7 C 12.225 7, 12 7.225, 12 7.500 M 27.177 9.553 C 27.629 11.725, 29.404 11.858, 29.810 9.750 C 30.020 8.655, 29.530 8, 28.500 8 C 27.539 8, 26.988 8.647, 27.177 9.553 M 8.158 11 C 8.158 12.375, 8.385 12.938, 8.662 12.250 C 8.940 11.563, 8.940 10.438, 8.662 9.750 C 8.385 9.063, 8.158 9.625, 8.158 11 M 10.559 13.532 C 9.491 14.339, 9.099 15, 9.686 15 C 10.274 15, 11.315 14.325, 12 13.500 C 13.557 11.624, 13.067 11.634, 10.559 13.532 M 6 13.500 C 6 13.775, 6.225 14, 6.500 14 C 6.775 14, 7 13.775, 7 13.500 C 7 13.225, 6.775 13, 6.500 13 C 6.225 13, 6 13.225, 6 13.500 M 15.405 14.155 C 14.962 14.870, 15.130 15.038, 15.845 14.595 C 16.998 13.883, 17.393 13, 16.559 13 C 16.316 13, 15.797 13.520, 15.405 14.155 M 20.177 14.553 C 20.629 16.725, 22.404 16.858, 22.810 14.750 C 23.020 13.655, 22.530 13, 21.500 13 C 20.539 13, 19.988 13.647, 20.177 14.553 M 27.533 14.947 C 26.653 16.370, 27.775 18, 29.632 18 C 30.508 18, 31.010 17.297, 30.823 16.333 C 30.434 14.324, 28.437 13.484, 27.533 14.947 M 4 16 C 4 16.733, 4.300 17.033, 4.667 16.667 C 5.033 16.300, 5.033 15.700, 4.667 15.333 C 4.300 14.967, 4 15.267, 4 16 M 23.986 18.750 C 23.979 19.712, 23.701 21.512, 23.370 22.750 C 22.914 24.450, 23.191 25, 24.500 25 C 25.727 25, 26.084 24.430, 25.723 23.048 C 25.442 21.974, 25.696 20.935, 26.286 20.738 C 27.590 20.303, 26.482 17, 25.031 17 C 24.464 17, 23.994 17.788, 23.986 18.750 M 6.612 20.819 C 6.333 21.270, 7.432 21.443, 9.053 21.206 C 10.674 20.968, 12 20.599, 12 20.387 C 12 19.625, 7.107 20.017, 6.612 20.819 M 14.333 20.667 C 14.700 21.033, 15.300 21.033, 15.667 20.667 C 16.033 20.300, 15.733 20, 15 20 C 14.267 20, 13.967 20.300, 14.333 20.667 M 28.446 21.087 C 28.077 21.685, 28.236 22.636, 28.800 23.200 C 30.062 24.462, 32 23.396, 32 21.441 C 32 19.757, 29.426 19.501, 28.446 21.087 M 10.731 24.920 C 10.296 26.583, 10.426 26.974, 11.168 26.232 C 11.750 25.650, 12.028 24.585, 11.788 23.863 C 11.538 23.114, 11.085 23.568, 10.731 24.920 M 14 26 C 14 26.733, 14.300 27.033, 14.667 26.667 C 15.033 26.300, 15.033 25.700, 14.667 25.333 C 14.300 24.967, 14 25.267, 14 26 M 26.431 26.112 C 25.677 27.332, 27.923 29.166, 29.202 28.375 C 29.641 28.104, 30 27.234, 30 26.441 C 30 24.744, 27.423 24.506, 26.431 26.112 M 22.688 27.646 C 21.314 29.020, 22.026 31.142, 23.750 30.810 C 24.712 30.624, 25.500 29.841, 25.500 29.070 C 25.500 27.491, 23.736 26.598, 22.688 27.646" stroke="none" fill="#f87c74" fill-rule="evenodd"/><path d="M 13 1.941 C 13 2.459, 13.450 3.160, 14 3.500 C 14.550 3.840, 14.986 4.654, 14.970 5.309 C 14.953 5.964, 14.481 5.713, 13.920 4.750 C 12.604 2.491, 10.459 2.519, 8.807 4.816 C 8.088 5.815, 6.661 6.945, 5.637 7.328 C 4.449 7.772, 3.947 8.689, 4.252 9.856 C 4.538 10.951, 3.981 12.155, 2.865 12.852 C 1.839 13.493, 1 14.858, 1 15.886 C 1 17.828, 3.290 20.376, 4.210 19.457 C 4.499 19.167, 4.519 20.066, 4.254 21.453 C 3.904 23.280, 4.285 24.167, 5.636 24.672 C 6.661 25.055, 8.115 26.224, 8.867 27.270 C 9.663 28.377, 10.990 28.974, 12.042 28.699 C 13.283 28.375, 13.683 28.662, 13.318 29.613 C 12.974 30.511, 13.491 31, 14.785 31 C 17.241 31, 18.840 26.149, 16.808 24.860 C 15.921 24.298, 15.878 24.026, 16.675 24.015 C 17.465 24.005, 17.863 21.563, 17.889 16.565 C 17.925 9.671, 17.767 9.098, 15.714 8.701 L 13.500 8.272 15.784 8.136 C 17.697 8.022, 17.995 7.553, 17.616 5.250 C 17.368 3.737, 17.127 2.163, 17.082 1.750 C 16.961 0.648, 13 0.834, 13 1.941 M 19 4 C 19 4.733, 19.300 5.033, 19.667 4.667 C 20.033 4.300, 20.033 3.700, 19.667 3.333 C 19.300 2.967, 19 3.267, 19 4 M 10.333 4.667 C 10.700 5.033, 11.300 5.033, 11.667 4.667 C 12.033 4.300, 11.733 4, 11 4 C 10.267 4, 9.967 4.300, 10.333 4.667 M 21.750 6.794 C 20.238 6.981, 19 7.553, 19 8.066 C 19 9.358, 23.731 9.245, 24.541 7.933 C 25.404 6.538, 25.041 6.390, 21.750 6.794 M 12 7.500 C 12 7.775, 12.225 8, 12.500 8 C 12.775 8, 13 7.775, 13 7.500 C 13 7.225, 12.775 7, 12.500 7 C 12.225 7, 12 7.225, 12 7.500 M 8.158 11 C 8.158 12.375, 8.385 12.938, 8.662 12.250 C 8.940 11.563, 8.940 10.438, 8.662 9.750 C 8.385 9.063, 8.158 9.625, 8.158 11 M 19 11 C 19 11.550, 19.977 12, 21.171 12 C 22.365 12, 24.168 12.747, 25.177 13.661 C 26.187 14.574, 27.347 14.985, 27.756 14.574 C 28.887 13.439, 24.101 10, 21.389 10 C 20.075 10, 19 10.450, 19 11 M 10.559 13.532 C 9.491 14.339, 9.099 15, 9.686 15 C 10.274 15, 11.315 14.325, 12 13.500 C 13.557 11.624, 13.067 11.634, 10.559 13.532 M 6 13.500 C 6 13.775, 6.225 14, 6.500 14 C 6.775 14, 7 13.775, 7 13.500 C 7 13.225, 6.775 13, 6.500 13 C 6.225 13, 6 13.225, 6 13.500 M 15.405 14.155 C 14.962 14.870, 15.130 15.038, 15.845 14.595 C 16.998 13.883, 17.393 13, 16.559 13 C 16.316 13, 15.797 13.520, 15.405 14.155 M 19 15 C 19 15.733, 19.300 16.033, 19.667 15.667 C 20.033 15.300, 20.033 14.700, 19.667 14.333 C 19.300 13.967, 19 14.267, 19 15 M 4 16 C 4 16.733, 4.300 17.033, 4.667 16.667 C 5.033 16.300, 5.033 15.700, 4.667 15.333 C 4.300 14.967, 4 15.267, 4 16 M 19 19 C 19 19.550, 20.125 20, 21.500 20 C 22.875 20, 24 19.550, 24 19 C 24 18.450, 22.875 18, 21.500 18 C 20.125 18, 19 18.450, 19 19 M 6.612 20.819 C 6.333 21.270, 7.432 21.443, 9.053 21.206 C 10.674 20.968, 12 20.599, 12 20.387 C 12 19.625, 7.107 20.017, 6.612 20.819 M 14.333 20.667 C 14.700 21.033, 15.300 21.033, 15.667 20.667 C 16.033 20.300, 15.733 20, 15 20 C 14.267 20, 13.967 20.300, 14.333 20.667 M 19 23 C 19 23.550, 19.900 24, 21 24 C 22.100 24, 23 23.550, 23 23 C 23 22.450, 22.100 22, 21 22 C 19.900 22, 19 22.450, 19 23 M 10.731 24.920 C 10.296 26.583, 10.426 26.974, 11.168 26.232 C 11.750 25.650, 12.028 24.585, 11.788 23.863 C 11.538 23.114, 11.085 23.568, 10.731 24.920 M 14 26 C 14 26.733, 14.300 27.033, 14.667 26.667 C 15.033 26.300, 15.033 25.700, 14.667 25.333 C 14.300 24.967, 14 25.267, 14 26 M 19 27 C 19 27.550, 19.927 28, 21.059 28 C 22.191 28, 22.840 27.550, 22.500 27 C 22.160 26.450, 21.234 26, 20.441 26 C 19.648 26, 19 26.450, 19 27" stroke="none" fill="#f16e4a" fill-rule="evenodd"/></svg>