<svg xmlns="http://www.w3.org/2000/svg" width="64" height="64" viewBox="0 0 367 359" xml:space="preserve"><path fill="#FFF" d="M203 360H1.035V1.096H367.84V360zM34.97 27.04s.009.044-.306-.465c-.554-.146-1.109-.292-2.301-.75-.829.614-2.138 1.063-2.414 1.866-4.907 14.298-9.748 28.62-14.426 42.993-.638 1.96-.78 4.322-.378 6.343 2.643 13.248 5.186 26.532 8.433 39.638 1.39 5.61 1.424 9.835-4.282 12.62-.218.106-.26.57-.544 1.245l9.083 7.287-7.147 6.134 9.594 9.018-5.891 4.866c5.12 5.785 9.84 11.119 14.499 17.18-5.47 17.117-11.007 34.212-16.376 51.36-1.827 5.836-3.23 11.803-4.685 18.503l19.88 68.694c7.266-1.975 13.95-3.74 20.606-5.61 16.566-4.65 33.12-9.349 50.343-14.039.432-.099.865-.198 1.568.35 12.78 9.476 25.498 19.039 38.408 28.335 1.972 1.42 4.818 2.202 7.284 2.26 10.463.243 20.963-.37 31.395.249 8.733.517 16.024-1.444 22.874-7.06 10.35-8.485 21.233-16.324 32.518-24.292.425.05.85.101 1.877.61l69.588 19.221c2.28-7.638 4.406-14.557 6.41-21.511 4.518-15.676 8.975-31.37 13.992-47.55-1.691-6.129-3.215-12.31-5.107-18.375-5.406-17.324-10.962-34.601-15.852-52.232l13.89-16.245-5.808-4.817 9.728-9.012-7.395-6.032 9.554-7.7c-1.051-.943-1.567-1.63-2.254-1.984-3.542-1.823-4.611-4.043-3.505-8.35 2.737-10.657 4.756-21.503 6.86-32.313 1.003-5.152 3.267-10.875 1.976-15.508-4.393-15.761-10.114-31.152-15.438-47.012-1.582.775-2.856 1.4-4.807 2.014-.492.324-.983.648-1.404 1.009 0 0-.062-.053-.84-.129-31.72 11.82-63.44 23.64-96.096 35.408-28.36.012-56.719.025-85.765-.272-20.606-7.695-41.193-15.44-61.825-23.064-11.108-4.103-22.294-7.996-33.491-11.933 0 0 .06-.034-.112-.679a43 43 0 0 1-1.911-.27"/><path fill="#763E16" d="m38.951 174.287-14.56-16.452 5.89-4.866-9.593-9.018 7.147-6.134-9.083-7.287c.283-.676.326-1.14.544-1.245 5.706-2.785 5.673-7.01 4.282-12.62-3.247-13.106-5.79-26.39-8.433-39.638-.403-2.021-.26-4.382.378-6.343 4.678-14.374 9.52-28.695 14.426-42.993.276-.803 1.585-1.252 2.9-1.467 1.033.552 1.581.706 2.13.86 0 0-.01-.044.119.262.737.406 1.346.507 1.954.608 0 0-.059.034-.102.363.586 1.066 1.104 1.954 1.862 2.52 19.047 14.185 38.095 28.37 57.195 42.484 16.963 12.536 33.99 24.986 51.105 37.934.113 3.212.11 5.966-.206 8.8-.522.123-.732.167-1.16.054-.395-.159-.574-.16-.845-.263-.092-.102-.356-.026-.537-.28-.567-.378-.954-.5-1.348-.592-.006.03.036-.014-.118-.283-1.065-.71-1.977-1.15-2.994-1.723-.105-.132-.442-.131-.613-.375-.545-.35-.918-.457-1.47-.774-.67-.438-1.161-.666-1.833-1.152-.755-.487-1.33-.715-2.038-1.15-.585-.365-1.038-.524-1.657-.945-.546-.395-.927-.53-1.382-.75-.075-.087-.3-.036-.494-.32-.616-.44-1.038-.598-1.522-.796-.062-.042-.212-.028-.424-.31-3.294-1.625-6.375-2.967-9.755-4.322-.756.342-1.214.698-1.985 1.076-1.133.626-1.954 1.23-3.06 1.906-.74.446-1.194.82-1.96 1.18-1.143.567-1.974 1.146-3.025 1.746-.52.134-.713.346-1.138.707a35 35 0 0 0-3.602 2.274c.033.026.017-.056-.288-.015-.593.32-.882.6-1.314.847-.142-.032-.342.18-.645.2-.585.296-.867.574-1.316.853-.168.002-.387.256-.656.267-.5.272-.732.532-1.27.863-1.354.734-2.4 1.398-3.721 2.088-.513.297-.75.568-1.254.868-.684.33-1.101.634-1.824.956-.782.37-1.259.72-2.128 1.18-.82 1.955-1.592 3.796-1.618 5.647-.147 10.43-.115 20.861-.504 31.366-16.392 4.784-32.424 9.494-48.457 14.204m278.14-147.309 4.13-2.023c5.324 15.86 11.045 31.251 15.438 47.012 1.29 4.633-.973 10.356-1.976 15.508-2.104 10.81-4.123 21.656-6.86 32.313-1.106 4.307-.037 6.527 3.505 8.35.687.354 1.203 1.04 2.254 1.983l-9.554 7.7 7.395 6.033-9.728 9.012 5.808 4.817c-4.702 5.5-9.296 10.872-14.571 16.318-14.872-4.04-29.062-8.152-43.122-12.54.396-1.005.66-1.733 1.045-2.917.14-10.51-.02-20.568.261-30.615.129-4.598-1.93-6.516-6.434-7.084a1369 1369 0 0 1-14.674-8.77c.03-.018.009-.086-.074-.305-.31-.504-.592-.58-1.16-.666-.999-.548-1.767-.878-2.653-1.464-.454-.398-.788-.54-1.206-.794-.082-.112-.36-.117-.552-.354-.576-.343-.96-.448-1.485-.775-.614-.441-1.087-.659-1.736-1.154-2.042.213-3.906.704-6.05 1.203-.892.39-1.505.774-2.417 1.19-.579.304-.86.577-1.46.903-1.948 1.071-3.579 2.088-5.511 3.124-.594.286-.885.551-1.506.885-2.953 1.685-5.575 3.303-8.52 4.963-.643.321-.963.6-1.637.9-1.152-.598-1.951-1.214-2.642-2.032.108-.201-.134-.59-.028-.932.015-.805-.075-1.267.006-2.094.069-1.148-.035-1.93.01-3.118.048-2.115-.05-3.824.033-5.7.182-.166.484-.555.833-.654a238 238 0 0 0 8.371-5.937c30.78-22.764 61.56-45.526 92.3-68.346.912-.677 1.36-1.981 2.024-2.993 0 0 .062.053.346.127.788-.309 1.293-.691 1.797-1.074"/><path fill="#F5851D" d="M38.92 174.651c16.064-5.074 32.096-9.784 48.685-14.36.886.306 1.214.48 1.666.925 1.001.682 1.877 1.095 2.902 1.67.149.162.587.208.715.448.465.343.803.445 1.326.78.735.446 1.283.658 1.944 1.121.691.692 1.27 1.132 1.819 1.937a539 539 0 0 1-10.24 17.993c.56 2.07 1.363 3.943 2.143 5.973-.022.157-.025.476-.32.538-.519.376-.741.69-.928 1.021.036.016-.019 0-.295.264a859 859 0 0 0-.449 33.576c.008 1.098 1.415 2.188 2.388 3.531 1.972 1.175 3.73 2.1 5.61 3.271.46.344.8.442 1.333.79 1.318.822 2.442 1.393 3.725 2.248 1.137.69 2.117 1.097 3.268 1.764.55.411.929.562 1.448.973 1.22.761 2.301 1.263 3.577 2.053 1.23.78 2.264 1.273 3.29 1.937-.007.17.054.508-.442.61-12.03.161-23.564.22-35.565.278l-58.834.093c1.597-5.907 3.001-11.874 4.828-17.71 5.369-17.148 10.905-34.243 16.406-51.724m230.76-12.915c14.19 4.113 28.38 8.226 42.948 12.432 5.875 17.39 11.43 34.668 16.837 51.992a160 160 0 0 1 4.545 18.321c-2.357-.196-4.15-.46-5.944-.464-17.684-.034-35.367-.025-53.52-.027-9.73-.116-18.99-.233-28.01-.585a70 70 0 0 1 3.362-2.465c.04.012.041-.073.375-.119 1.605-.915 2.876-1.785 4.477-2.712 2.632-1.452 4.934-2.846 7.574-4.26 1.637-.89 2.938-1.76 4.521-2.684.898-.496 1.515-.938 2.454-1.407.688-.945 1.052-1.863 1.516-3.238.11-10.285.169-20.112.08-29.939-.014-1.506-.709-3.007-1.22-4.777-1-.71-1.87-1.152-2.909-1.816-.747-.671-1.326-1.122-1.87-1.989-.73-2.487-1.283-4.671-2.307-6.605-2.113-3.988-4.478-7.842-6.624-11.961.471-.517.828-.823 1.54-1.198 3.737-2.124 7.118-4.18 10.78-6.264a32 32 0 0 0 1.395-.235"/><path fill="#E5771B" d="M275.016 243.99c17.683.002 35.366-.007 53.05.027 1.794.003 3.587.268 5.675.712-4.186 15.987-8.643 31.68-13.16 47.356-2.005 6.954-4.13 13.873-6.41 21.511-23.367-6.454-46.478-12.838-69.883-19.818 3.842-7.289 7.923-14.015 12.126-20.665 6.155-9.737 12.397-19.418 18.602-29.123m-257.258.492c19.383-.427 38.839-.458 58.8-.133 1.289 1.796 1.97 3.304 2.873 4.666 8.576 12.933 17.226 25.817 25.751 38.783 1.222 1.858 1.888 4.082 2.81 6.136-16.558 4.68-33.11 9.377-49.677 14.029-6.656 1.869-13.34 3.634-20.605 5.609-6.72-23.22-13.3-45.957-19.952-69.09"/><path fill="#F48721" d="M132.996 63.294c28.36-.012 56.719-.025 85.537.358-3.644 11.883-7.747 23.372-12.001 34.906-.15.046-.385.257-.658-.022-.524-.351-.774-.423-1.088-.676-.229-.448-.452-.512-.995-.6-1.095-.594-1.93-.961-2.902-1.595-.686-.485-1.234-.702-1.992-1.18-5.918-3.41-11.624-6.557-17.506-9.973-1.462-.106-2.749.058-4.316.253-.87.473-1.46.914-2.329 1.357-.534.255-.789.51-1.31.796-.66.37-1.054.71-1.76 1.066-.609.29-.906.564-1.537.884-3.626 2.008-6.918 3.97-10.516 5.951a7.2 7.2 0 0 0-1.652 1.164c.023.02.006-.038-.28-.022-.712.373-1.138.729-1.91 1.144-1.14.538-1.935 1.018-2.996 1.532-.632.408-.998.784-1.501 1.145-.137-.015-.281.219-.593.229-.617.275-.922.54-1.382.814-.155.008-.295.286-.522.272-.501.127-.791.21-1.45.049-.907-.994-1.666-1.727-1.982-2.618-4.156-11.732-8.25-23.486-12.36-35.234"/><path fill="#E4771C" d="M132.653 63.14c4.452 11.902 8.546 23.656 12.702 35.388.316.89 1.075 1.624 1.894 3.04.093 3.483-.08 6.355-.254 9.228-16.998-12.489-34.025-24.94-50.988-37.475-19.1-14.114-38.148-28.3-57.195-42.485-.758-.565-1.276-1.453-1.839-2.544a874 874 0 0 1 33.51 11.63c20.633 7.622 41.22 15.368 62.17 23.217"/><path fill="#E1761D" d="M206.682 98.512c4.104-11.488 8.207-22.977 12.32-34.833 31.728-12.19 63.448-24.01 95.557-35.792-.275 1.05-.723 2.354-1.636 3.031-30.738 22.82-61.52 45.582-92.299 68.346-2.659 1.967-5.347 3.893-8.448 5.566-1.356-1.67-2.286-3.067-3.5-4.7-.955-.523-1.625-.813-2.189-1.213.107-.11.195-.405.195-.405"/><path fill="#C0AEA0" d="M242.076 293.62c-10.656 8.113-21.538 15.952-31.89 24.438-6.849 5.615-14.14 7.576-22.873 7.059-10.432-.618-20.932-.006-31.395-.25-2.466-.057-5.312-.84-7.284-2.26-12.91-9.295-25.627-18.858-38.548-28.842-.018-.75.178-.884.82-.78 12.719 5.937 25.065 11.745 38.143 17.897 0-3.816 0-6.901.335-10.126 2.51-1.009 4.67-2.589 6.861-2.63 12.593-.242 25.194-.016 37.79-.187 3.47-.046 6.487.445 8.962 3.454.009 3.222.009 5.994.009 9.064 1.43-.308 2.468-.334 3.318-.746 8.298-4.026 16.587-8.071 24.83-12.21 3.331-1.672 6.542-3.587 10.051-5.307.452.532.662.978.87 1.425"/><path fill="#CE6216" d="M110.534 292.857c-.27.024-.466.157-.583.584-.428.284-.86.383-1.626.488-1.255-2.05-1.921-4.273-3.143-6.13-8.525-12.967-17.175-25.851-25.75-38.784-.904-1.362-1.585-2.87-2.407-4.667 11.496-.415 23.03-.473 35.123-.787.558-.257.486-.581.74-.299.706.5 1.159.717 1.763 1.18.56.641.97 1.035 1.372 1.862-.995 8.108-2.1 15.77-2.936 23.462-.783 7.2-1.283 14.432-1.994 21.899-.245.563-.402.878-.559 1.192m131.856.835c-.523-.52-.733-.966-1.227-1.68-.286-.269-.344-.639-.288-1.112-.14-2.757-.293-5.046-.54-7.325-1.35-12.388-2.724-24.774-3.772-37.072 2.208-.37 4.099-.828 6.139-1.28.148.005.3-.25.593-.242.724-.343 1.155-.692 1.624-1.026.038.016.03-.066.26-.079.51-.15.806-.225 1.119-.236 9.259.117 18.518.234 28.248.35-5.735 9.705-11.977 19.386-18.132 29.123a722 722 0 0 0-12.427 20.436c-.433.317-.857.266-1.596.143"/><path fill="#E4771C" d="M34.821 26.83c-.39.1-.939-.054-1.654-.45.388-.097.943.049 1.654.45m2.146.802c-.523.221-1.132.12-1.888-.274.502-.213 1.152-.13 1.888.274"/><path fill="#E1761D" d="M316.753 26.973c-.166.388-.67.77-1.495 1.06.173-.416.664-.74 1.495-1.06"/><path fill="#1BBCF1" d="M243.002 244.974s-.152.254-.706.202c-2.65-.023-4.746.008-7.087.044-.558-.126-.879-.148-1.376-.269-.38-.487-.59-.767-.83-1.327-.673-.445-1.316-.611-2.254-.793-.766-.351-1.237-.686-1.846-1.222-.381-.441-.675-.563-1.336-.626-1.386-.745-2.455-1.429-3.594-2.449-.827-.594-1.585-.852-2.237-1.243.105-.133-.056.164-.1-.183-.668-.486-1.293-.624-1.948-.784-.03-.021-.016.05.036-.15-.207-.197-.466-.193-1.02-.222-.752-.375-1.21-.718-1.667-1.377-.013-.736-.026-1.156.42-1.58 1.683-.08 2.908-.154 4.27-.236.136-.007.273.23.293.519.66.48 1.3.672 2.274.9a29 29 0 0 1 3.847 2.356c.317.366.562.466 1.14.508.763.38 1.236.718 1.77 1.404 1.071.728 2.082 1.109 3.33 1.51.236.02.596.333.651.614.684-.022 1.312-.325 1.949-.963-.08-.763-.17-1.192-.204-2.086.004-7.78-.046-15.095.032-22.733-.189-1.096-.506-1.87-1.004-2.896-.714-.564-1.247-.875-1.832-1.52-1.775-1.277-3.5-2.219-5.17-3.196.053-.035.067.091-.046-.222-.721-.5-1.329-.687-2.21-.915-.698-.374-1.122-.708-1.604-1.404-1.11-.747-2.163-1.131-3.415-1.53-.466-.113-.651-.296-.728-.784-.253-.221-.53-.22-1.109-.237-.763-.378-1.226-.738-1.84-1.342-.507-.362-.86-.481-1.402-.612-.188-.012-.434-.296-.495-.626-1.017-.724-1.975-1.118-2.942-1.507-.01.006-.006-.017-.057-.366-1.73-1.09-3.408-1.83-5.423-2.625a66 66 0 0 1-5.677-3.446c-.363-.41-.642-.51-.922-.514.044-.026-.004.063-.037-.312-1.091-.783-2.15-1.19-3.483-1.641-.638-.11-1-.175-1.524-.476-.73-.718-1.299-1.202-1.937-2.047-1.138-.717-2.207-1.074-3.605-1.494-1.654-.895-2.979-1.726-4.32-2.75-.016-.19-.116-.561-.09-.944.046-1.404.065-2.427.43-3.413a66 66 0 0 1 6.832 4.227c1.755 1.102 3.345 1.899 4.896 2.723-.038.027-.034-.067.131.22.58.395.997.502 1.731.64 1.845.772 3.372 1.512 5.06 2.502.773.73 1.382 1.213 2.039 2.051 1.716 1.096 3.385 1.836 5.014 2.605-.04.029-.013-.067.103.207.65.482 1.185.69 2.07.958a79 79 0 0 1 5.914 3.485c.32.33.556.417 1.167.486 4.488 2.589 8.632 5.11 12.891 7.945.726.488 1.337.661 1.906.863-.04.029-.037-.071.123.224.583.4 1.005.503 1.755.61 3.16-1.266 5.993-2.537 9.161-3.783.81-.368 1.283-.76 1.965-1.411 4.782-2.98 9.356-5.7 14.315-8.648-1.485-1.247-2.462-2.068-3.574-3.141-.66-.436-1.186-.618-1.959-.846-.493-.263-.739-.48-1.138-.99-.568-.371-.983-.45-1.689-.584-1.26-.715-2.228-1.376-3.334-2.344-.561-.393-.983-.478-1.695-.609-.845-.217-1.4-.387-2.156-.846-1.809-1.316-3.416-2.344-5.084-3.443-.06-.072-.415-.172-.766-.246a109 109 0 0 1-7.148-4.401c-.305-.373-.55-.464-1.17-.529-2.462-1.363-4.59-2.645-6.864-4.225-1.104-.729-2.062-1.159-3.3-1.62-.715-.357-1.15-.682-1.598-1.3-.656-.473-1.298-.653-2.276-.902-2.44-1.368-4.546-2.666-6.72-4.306-2.002-1.353-3.839-4.41-6.19-.344a78 78 0 0 1-7.19 3.773c-.725.34-1.162.669-1.596 1.016.003.019-.028-.005-.409-.012-1.43.718-2.478 1.442-3.668 2.385-.621.408-1.1.597-1.943.765-.856.414-1.35.848-2.052 1.51-1.661.989-3.114 1.75-4.88 2.336-.568-1.07-.824-1.964-.843-3.033.387-.526.538-.877.909-1.477 4.076-2.336 7.932-4.422 12.158-6.488 1.495-.969 2.62-1.957 3.74-2.96-.005-.015.023-.001.388.01 2.555-.399 4.948-1.13 2.146-3.529-1.886-1.614-4.613-2.246-7.285-3.355-.664-.288-1.005-.538-1.434-.89-.23-.217-.393-.287-.907-.367-1.523-.662-2.716-1.267-4.068-2.103-.741.211-1.321.652-1.912 1.146-.012.053-.112.013-.255.048-.332.11-.48.234-.833.66-1.693.997-3.141 1.738-5.049 2.439-1.995-.011-3.53.018-5.408-.027-1.722-.94-3.104-1.807-4.583-2.784-.257-.233-.438-.303-.687-.3-.046.018-.067-.08-.108-.364-.696-.394-1.351-.505-2.333-.517-2.328 1.087-4.331 2.077-6.706 3.05-.852.447-1.334.913-2.03 1.609-1.682 1.16-3.15 2.09-4.97 3.244 1.289 1.19 2.192 2.024 3.07 3.218-.03.84-.036 1.32-.329 1.82-.998.296-1.71.57-2.74.783-1.198-.659-2.076-1.255-2.985-2.144-.688-.398-1.346-.503-2.23-.54-.525.2-.834.223-1.514.076-1.008.51-1.652 1.079-2.517 1.905a214 214 0 0 1-11.472 6.124c-.613.321-.899.627-1.192.883-.008-.049.075.005-.26-.008-.787.398-1.24.809-1.907 1.471-6.806 4.258-13.397 8.264-20.29 12.272-.501.021-.701.04-1.2.07-1.014.53-1.73 1.049-2.7 1.82-1.511.901-2.769 1.551-4.126 2.228-.099.026-.429.26-.71.51-.522.328-.761.404-1.289.501-.717.358-1.145.697-1.577 1.032-.003-.003.001.004-.323.018-.738.445-1.15.876-1.678 1.5-.362.38-.64.483-1.204.658.075.65.405 1.147.884 1.642.148-.003.312.245.368.59 1.05.748 2.042 1.15 3.255 1.56.522.104.728.3.92.92.88.628 1.679.932 2.57 1.204.09-.033.144.154.287.343.387.414.676.527 1.336.567 1.767.975 3.207 1.91 4.646 3.15.649.476 1.298.645 2.243.847.747.398 1.198.764 1.72 1.473 1.082.717 2.092 1.092 3.412 1.535 1.31.336 2.309.603 3.65.893.814-.384 1.285-.791 1.773-1.14.017.06-.09-.002.248.054.79-.35 1.242-.757 1.723-1.102.029.06-.094.005.269.061.813-.41 1.264-.878 1.833-1.51.119-.164.477-.352.477-.352s.405.005.775.036c1.176-.642 1.98-1.316 2.798-1.97.013.022-.024-.011.293-.014.764-.388 1.21-.772 1.841-1.398 1.092-.655 2-1.068 3.025-1.324.376-.191.634-.538 1.146-1.128a181 181 0 0 1 7.912-4.183c.51-.207.716-.429 1.042-.984a24.7 24.7 0 0 1 4.049-1.969c.76-.385 1.207-.761 1.805-1.383.578-.62 1.005-.995 1.696-1.393.988-.538 1.71-1.053 2.784-1.647 1.444-.554 2.536-1.03 3.778-1.55.347-.137.492-.281.807-.734 1.033-.622 1.844-.988 3.017-1.316.849.04 1.335.042 1.96.353.503.889.867 1.469 1.199 2.072-.032.023.038.06-.292-.054-.919.431-1.508.976-2.284 1.78-1.323.827-2.459 1.396-3.96 1.938-1.182.62-2 1.266-2.98 2.148-.691.438-1.218.64-2.102.824-1.146.63-1.936 1.277-2.829 2.049-.103.124-.425.105-.726.12-.59.273-.88.532-1.35 1.058-1.332.788-2.487 1.31-3.954 1.819-.84.52-1.366 1.052-2.141 1.834-2.708 1.546-5.168 2.844-7.982 4.132-1.144.614-1.933 1.238-2.722 1.92.001.056-.112.063-.4.067-.724.326-1.16.648-1.6.981-.005.012-.029.02-.329.031-.754.348-1.208.684-1.677.997-.014-.022.033.003-.198.095-.523.283-.71.547-.801.884-.009-.002-.008.015-.211.064-.468.17-.667.359-1.058.737a6 6 0 0 1-1.004.273c-.43.143-.607.317-.905.715-.185.158-.653.285-.898.32-.572.157-.802.381-.971.778-.037.072-.196.04-.486.082-.664.445-1.038.85-1.415 1.459-.004.205-.163.583-.373.727-.083.705.043 1.265.238 2.066.08.576.17.89.26 1.683-.086 7.969-.098 15.437-.117 23.212.355.696.718 1.087 1.081 1.477.304-.474.607-.948.929-1.491.018-.069.147-.01.505-.023 1.377-.697 2.397-1.382 3.648-2.312 3.204-1.84 6.177-3.434 9.516-4.968 1.01-.514 1.652-1.087 2.466-1.902.708-.462 1.244-.682 1.913-.737.312-.112.492-.389.814-.836.143-.17.543-.361.543-.361s.443.001.813.02c1.823-.964 3.276-1.947 4.72-2.96-.01-.03.044.005.404.003 1.396-.784 2.432-1.564 3.608-2.542.415-.39.72-.48 1.24-.514.428-.162.599-.344.937-.818 1.04-.558 1.84-.89 3.004-1.198 1.174-.631 1.983-1.288 2.956-2.175.684-.429 1.203-.628 1.95-.866.528-.162.74-.374 1.033-.825.169-.15.618-.194.963-.182.822-.4 1.3-.812 1.91-1.426.4-.414.703-.501 1.341-.475.736-.371 1.171-.73 1.76-1.322.845-.464 1.539-.692 2.574-.936.633-.341.924-.667 1.382-1.244.856-.655 1.546-1.058 2.406-1.565.381-.289.504-.52.524-1.275.024-9.217.065-17.956.311-26.798.447-.31.607-.568 1.05-.873 1.089-.002 1.814-.005 2.443.279.043 1.114.182 1.94.422 3.224.324 8.78.547 17.102.816 25.79 1.079.785 2.11 1.204 3.477 1.693 1.699.893 3.063 1.717 4.511 2.824.766.562 1.448.84 2.425 1.148.681.102 1.067.174 1.612.485.741.703 1.323 1.167 2.066 1.864.514.339.866.446 1.408.57.19.017.43.313.492.646 1.037.711 2.012 1.089 3.245 1.513.396.153.535.26.69.572.352.265.687.325 1.27.37.578.021.908.036 1.335.321.185.473.276.655.44 1.175 1.065.725 2.055 1.112 3.324 1.573.724.404 1.168.734 1.682 1.41 1.086.724 2.102 1.103 3.394 1.521.709.376 1.142.712 1.747 1.297.55.35.93.452 1.474.55.164-.005.34.272.339.635.004 1.09.01 1.817-.412 2.559-.998.08-1.566.146-2.47.163-1.001-.115-1.666-.183-2.709-.127-.73 6.363-1.082 12.602-1.61 19.135-1.204.779-2.232 1.263-3.327 1.774-.067.026-.289.203-.51.476-.66.422-1.1.57-1.83.737-.568.273-.846.528-1.348 1.038-3.071 1.773-5.919 3.29-8.895 4.64-.312.103-.494.376-.895.854-.932.546-1.645.885-2.452 1.255-.094.03-.395.273-.634.55-1.74 1.035-3.242 1.795-5.106 2.53-1.172.623-1.98 1.27-2.79 1.943-.002.026-.05.006-.468-.005-1.814.012-3.21.036-4.92-.044-.45-.278-.587-.452-.819-.722-.246-.206-.414-.269-.652-.254-.051.03-.101-.078-.267-.297-.507-.324-.85-.429-1.52-.617a55 55 0 0 1-4.498-2.669c-.279-.306-.49-.396-1.076-.485-3.15-1.74-5.955-3.406-8.838-5.42-.889-.646-1.701-.945-2.828-1.282-1.576-.803-2.836-1.568-4.155-2.666-1.02-.73-1.982-1.128-2.95-1.524-.006.002-.004-.01.005-.331-.501-1.114-1.012-1.908-1.615-3.02-.027-.752.038-1.185.447-1.763.13-3.737-.086-7.328-.417-11.302-.214-1.175-.31-1.968-.65-3.016-2.289.806-4.334 1.866-6.582 2.717-.067-.073.068.065-.122.076-.912.403-1.5.934-2.316 1.72-2.432 1.469-4.635 2.682-7.03 3.947-.443.175-.614.369-.957.874-1.507.83-2.76 1.422-4.371 2.023-1.373.694-2.388 1.38-3.4 2.07.002.007-.01 0-.435-.012-1.556.035-2.688.084-4.035.103-.216-.03-.506-.353-.584-.687-.867-.624-1.655-.913-2.444-1.202a10 10 0 0 1-1.628-.936c-.269-.285-.337-.328-.337-.328-1.034-.492-2.069-.985-3.356-2.088-1.389-1.07-2.524-1.53-3.66-1.99-.378-.151-.757-.302-1.38-1.062-1.28-.973-2.317-1.335-3.353-1.698-1.125-.572-2.249-1.143-3.712-2.185-.663-.585-.987-.7-1.31-.815-1.758-.925-3.516-1.85-5.51-3.437-.575-3.278-1.143-5.89-1.208-8.514-.236-9.48-.302-18.964-.433-28.447 0 0 .055.017.339-.013.49-.377.697-.723.903-1.069 0 0 .003-.319.373-.514a416 416 0 0 1 6.072-3.123c.403-.166.566-.341.917-.811.961-.812 1.669-1.39 2.684-1.99 1.238-.405 2.17-.788 3.276-.936.707-.3 1.238-.836 1.968-1.638 3.16-2.04 6.121-3.81 9.233-5.667.206-.186.334-.325.304-.38-.101-.188-.257-.346-.649-.68-.872-.669-1.489-1.175-2.255-1.974-.557-.425-.964-.557-1.602-.701-.589-.284-.946-.556-1.41-1.154-.727-.536-1.347-.746-2.238-.997-.695-.366-1.118-.69-1.587-1.367-1.709-1.115-3.372-1.878-5.288-2.668-.376-.14-.5-.254-.7-.68-1.019-.66-1.963-1.005-2.907-1.35a7 7 0 0 1-1.978-1.09c-.658-.57-.983-.685-1.308-.8 0 0-.438-.046-.648-.523-1.128-.86-2.047-1.242-2.965-1.626a9 9 0 0 1-1.182-.729c-.168-10.638-.2-21.07-.053-31.5.026-1.85.798-3.69 1.936-5.645 1.178-.472 1.647-.836 2.115-1.2.418-.303.835-.606 1.787-.984.776-.333 1.02-.59 1.262-.847 1.046-.664 2.091-1.328 3.702-2.102.805-.35 1.044-.593 1.282-.834 0 0 .22-.254.69-.283.752-.302 1.034-.573 1.316-.845 0 0 .2-.213.658-.205.74-.282 1.021-.573 1.303-.864 0 0 .016.082.34.057 1.41-.792 2.496-1.56 3.582-2.328.088-.308.281-.52 1.147-.634 1.374-.584 2.183-1.169 2.991-1.753.454-.373.908-.747 1.998-1.18 1.433-.686 2.228-1.314 3.023-1.942.458-.355.916-.711 1.877-.784a714 714 0 0 0 9.762 4.335s.15-.014.388.334c.673.49 1.107.632 1.54.774 0 0 .225-.05.461.303.62.484 1.003.615 1.387.745.453.16.906.318 1.614.996.87.71 1.482.903 2.095 1.095.492.228.983.456 1.822 1.14.723.561 1.098.666 1.472.772 0 0 .337 0 .584.417 1.167.847 2.087 1.276 3.006 1.706 0 0-.042.043.131.281.57.352.966.465 1.362.579 0 0 .264-.076.41.202.434.266.722.255 1.009.244.21-.044.42-.088 1.26-.42 1.018-6.438 1.404-12.587 1.79-18.735 0 0 .14-.278.608-.297.773-.283 1.077-.548 1.38-.813 0 0 .145-.234.57-.209.777-.379 1.128-.784 1.479-1.188.795-.48 1.59-.96 3.022-1.518 1.06-.432 1.482-.786 1.904-1.14 0 0 .017.056.314.036.744-.408 1.191-.795 1.639-1.183 3.291-1.961 6.583-3.923 10.523-5.946.943-.336 1.239-.611 1.535-.886.394-.34.788-.679 1.72-1.074.797-.295 1.058-.534 1.319-.773.589-.44 1.178-.882 2.572-1.272 1.859.011 2.913-.028 3.967-.067 5.707 3.147 11.413 6.295 17.321 10.018.848.761 1.494.947 2.14 1.132.835.368 1.669.735 2.858 1.469.527.527.73.618.964.641.251.072.501.144 1.056.537.305.32.476.45.476.45.67.29 1.34.579 2.298 1.437a549 549 0 0 1 2.559 5.557c.098 1.709.197 3.418-.092 5.634-.238 1.465-.09 2.424.06 3.382.09.462.18.924.096 1.818-.246.67-.192.874-.012 1.044.8.617 1.599 1.233 3.095 1.838 1.003-.325 1.31-.637 1.616-.95 2.622-1.617 5.244-3.235 8.506-4.926.926-.348 1.212-.623 1.499-.898 1.63-1.017 3.261-2.034 5.52-3.114.902-.351 1.174-.64 1.447-.927.614-.383 1.227-.766 2.556-1.174 2.407-.319 4.099-.614 5.79-.909.472.218.945.436 1.724 1.147.709.576 1.11.659 1.512.742 0 0 .278.005.485.367.537.508.868.654 1.2.8.767.33 1.535.66 2.647 1.39.562.613.824.714 1.13.703 0 0 .022.068-.055.478-.476 1.38-.876 2.352-1.587 3.241-.662-.325-1.013-.57-1.513-1.044-.49-.328-.83-.426-1.428-.567a5.3 5.3 0 0 1-1.64-1.209c-.528-.41-.915-.538-1.64-.74-2.288.013-4.458-.422-6.142.29-3.565 1.51-6.877 3.618-10.416 5.506-.123.025-.514.324-.764.548-.67.368-1.091.512-1.793.67-.54.272-.799.53-1.17.982-.322.45-.59.564-1.162.338-1.052.407-1.86 1.014-2.865 1.888-2.11 1.959-4.024 3.65-6.058 5.8.203 6.433.43 12.36-7.536 14.19-.596.255-.875.546-1.389 1.073-2.534 1.674-4.834 3.113-7.31 4.665.035.376.247.637.698.951.556.21.744.462.918 1.086.648.487 1.183.699 2.054.955a40 40 0 0 1 4.947 3.118c.51.387.874.514 1.421.658.183.015.395.316.424.588.665.423 1.301.574 2.318.704 1.14-.079 1.898-.136 2.829.046.711-.282 1.25-.803 1.973-1.597 2.34-1.413 4.496-2.552 6.911-3.725.503-.271.747-.509 1.16-.991.715-.451 1.26-.657 1.983-.633.71-.301 1.24-.83 1.946-1.635 2.074-1.388 3.973-2.5 5.976-3.438.38-.162.655-.497 1.192-.89.425-.13.589-.2.97-.373.494-.29.673-.549.9-1.155.757-.426 1.367-.572 2.155-.775.414-.17.58-.348.96-.655.454-.145.628-.227.995-.376.447-.2.624-.4 1.051-.782 1.77-.803 3.212-1.492 4.874-2.222.51-.171.707-.386.993-.823.183-.137.632-.223.87-.186.54-.271.84-.579 1.308-1.1.674-.378 1.18-.54 1.823-.411.801 1.115 1.464 1.938 2.003 2.988-.44.363-.754.498-1.31.666-.56.162-.777.39-1.044.847-.152.132-.547.206-.821.22-.53.26-.786.507-1.31.966-3.845 2.442-7.42 4.67-11.308 6.947-1.838.745-3.364 1.44-5.25 2.094-.97.547-1.582 1.136-2.427 1.973-4.417 2.725-8.6 5.201-13.238 7.946 2.048 1.579 3.343 2.578 4.742 3.903.73.519 1.354.71 2.288.996 1.044.535 1.78.976 2.621 1.578.305.345.54.443 1.125.537.465.242.616.4.835.67.203.248.364.318.874.388 1.224.651 2.127 1.236 3.166 2.073.482.374.829.497 1.502.678 2 1.079 3.672 2.1 5.396 3.3.35.168.648.16 1.313.117 1.752-.485 3.137-.936 4.853-1.384.777-.417 1.221-.836 1.892-1.488a94 94 0 0 1 6.864-3.624c.532-.287.783-.554 1.131-1.025.098-.205.202-.646.535-.703.962-.301 1.59-.547 2.33-.386.47 1.468.83 2.529 1.189 3.59-.356.306-.713.612-1.528 1.197-2.676 1.437-4.894 2.595-7.422 3.752-.594.28-.877.56-1.329 1.09-.813.715-1.457 1.184-2.268 1.738-.224.195-.357.353-.323.409.12.198.298.362.75.73 6.809 3.86 13.32 7.527 19.832 11.195.579.45 1.158.902 1.97 1.89 1.148.947 2.061 1.356 2.975 1.765.38 1.504 1.075 3.005 1.089 4.511.089 9.827.03 19.654-.388 30.001a29 29 0 0 0-1.53 3.204c-.617.441-1.233.883-2.513 1.329-1.935.92-3.206 1.837-4.477 2.754-2.303 1.394-4.605 2.788-7.61 4.203-1.946.946-3.192 1.87-4.438 2.795 0 0 0 .085-.395.083-1.795.978-3.195 1.958-4.595 2.939 0 0 .008.082-.317.088-.76.337-1.195.667-1.63.997m-110.338-93.465c-.378-.113-.756-.225-1.748-.395a9.5 9.5 0 0 1-1.148-.927c-.139-.134-.302-.223-.656-.216 0 0-.03-.172-.162-.863-2.067-.999-4.133-1.997-6.826-3.07-.962-.413-1.923-.826-3.242-1.794-2.007-1.293-4.014-2.586-6.02-4.293-.285-.017-.57-.034-1.51-.13-1.45-.94-2.9-1.882-4.672-3.32a14 14 0 0 0-1.6-.42c-.376-.308-.751-.616-1.451-1.508-.418-.119-.835-.237-1.761-.338-.28-.182-.56-.363-.994-1.193-1.381-.641-2.762-1.283-4.785-2.044-1.019-.325-2.038-.65-3.82-.853-.412.813-1.168 1.623-1.178 2.442-.068 5.386-.007 10.776.122 16.162.01.44.839.862 1.483 2.142.42 2.443.84 4.886 1.629 7.862 2.548 1.423 5.097 2.845 7.99 4.807 1.228.813 2.457 1.627 3.826 3.188.857.3 1.713.598 3.134.912.58.435 1.16.87 2.057 1.819.375.118.75.236 1.703.432.646.406 1.291.812 2.22 1.646.311.121.623.243 1.643.521 1.38.425 2.759.85 4.397 1.515.236-.192.472-.384 1.034-1.033a26 26 0 0 1 2.036-.726c.22-.242.441-.484 1.118-1.204 1.76-.911 3.52-1.823 6.03-2.662.822-.67 1.645-1.339 2.86-2.524.974-.45 1.948-.898 3.638-1.376.988-.711 1.975-1.422 3.339-2.647l2.62-2.358c-1.893-1.342-3.458-2.452-5.22-3.836-.173-.158-.376-.246-1.118-.32-.235-.232-.471-.463-1.028-1.298-.429-.11-.857-.219-1.806-.307-.274-.202-.548-.404-1.05-.966a1.16 1.16 0 0 0-.75-.337s-.011.023-.334-.49M93.1 226.552c.145.228.35.371 1.22.679.885.615 1.77 1.231 2.81 2.573.842.303 1.684.606 3.101.963.583.484 1.166.968 1.886 2.12.994.356 1.988.713 3.416 1.103.304.092.505.289.79 1.274 1.263.563 2.526 1.126 4.43 1.815 1.43.924 2.859 1.848 4.61 3.356.839-.272 1.677-.543 2.49-1.14 0 0 .14-.294.636-.654-.143-.878-.285-1.756-.55-3.565-.015-5.986.092-11.976-.117-17.954-.064-1.828-.996-3.626-1.998-5.929-2.954-1.858-5.907-3.716-9.08-5.906-.202-.191-.443-.289-1.32-.34-.463-.35-.926-.699-1.519-1.733a56 56 0 0 0-3.49-1.276c-.127-.115-.254-.23-.545-.974-2.295-.767-4.59-1.533-6.84-2.086 0 0-.211.053-.972.296-.108 8.491-.221 16.982-.29 25.474 0 .153.534.31 1.063.421 0 0 .231-.09.1.513.008.205.015.41.17.97m92.367-107.622c-.202.064-.344.194-1.064.938-.854 1.773-2.343 3.51-2.448 5.326-.38 6.589-.297 13.205-.668 19.976-.187.334-.118.604.319 1.65.117.84.235 1.678.481 2.833.285-.038.57-.075 1.55-.429.251-.038.503-.077.95-.113 0 0 .294-.244.81-.778 1.505-.792 3.01-1.585 5.165-2.34.825-.618 1.65-1.236 2.893-2.303.564-.212 1.129-.425 2.266-.674q.637-.51 1.278-1.016s-.002-.004.67.02c1.128-.799 2.255-1.597 3.865-2.944 1.284-.674 2.569-1.348 4.115-2.155.165-.113.295-.258.67-1.3.017-4.506.035-9.011.385-13.522 0 0 .32-.09.654-.27-.116-.276-.231-.552-.49-1.49.045-.448.09-.895.474-1.512.062-.109.2-.277.17-.317-.142-.188-.332-.34-.649-1.387.024-2.66.049-5.32.09-8.667-1.666.483-3.333.966-4.996 1.532 0 0-.065-.051-.636-.078-.458.291-.915.582-1.692 1.471-1.243.527-2.487 1.053-4.104 1.6-.26.082-.432.25-.943.884-.182.051-.364.102-1.017.202-.316.127-.525.353-1.085 1.148-1.177.588-2.353 1.177-3.954 1.831-.285.122-.465.333-.886.951 0 0-.461.09-.98.117-.241.235-.482.47-.762.847 0 0-.135-.056-.431-.031m-13.481-.936s-.007.055-.276-.46a19 19 0 0 0-1.66-.565s0-.082-.14-.76c-.762-.255-1.523-.511-2.285-1.013 0 0-.057.239.096-.166-.243.039-.486.077-1.337.06-.459-.372-.918-.744-1.486-1.844-1.503-.665-3.007-1.33-5.182-2.062a510 510 0 0 1-7.105-3.787c-.168.284-.337.568-.44 1.757-.075 8.62-.15 17.24-.547 26.071.307.275.613.549 1.55 1.174 3.597 2.234 7.194 4.468 10.927 7.388.765.214 1.53.428 2.154 1.082 0 0 .183-.424.175.298.863.273 1.727.547 3.313.948 2.187 1.251 4.374 2.503 6.784 3.781.232-.053.401-.188.648-1.163.11-.233.22-.465 1.03-1.001.196-8.2.413-16.4.525-24.602.005-.378-.925-.77-1.85-1.627a50 50 0 0 1-2.15-2.123c-.311-.1-.623-.198-1.422-.388 0 0-.342-.358-.582-.701a1.2 1.2 0 0 0-.74-.297m5.333 143.873c.084-.09.257-.215.237-.261-.087-.21-.229-.397-.488-1.523-.032-14.685-.064-29.37-.16-44.414-.287-.012-.574-.024-1.472.202-.432.064-.863.128-2.016.145-.814.64-1.63 1.278-2.84 2.411-1.131.552-2.263 1.103-4.16 1.594-1.093.805-2.185 1.61-3.536 2.78-.252.19-.534.261-1.535.186-.79.604-1.58 1.208-2.69 2.232-.212.276-.424.552-1.353.932-1.748 1.393-4.94 2.732-4.995 4.188-.245 6.498.407 13.03.748 20.152.646.174 1.29.348 2.572.6.794.298 1.587.596 2.636 1.376.236.276.472.552.893 1.508.829.247 1.658.495 3.047.804.589.43 1.178.86 1.925 2.02.85.295 1.7.591 3.052.904.263.198.526.395.934 1.243 1.603.694 3.206 1.387 5.29 2.124.34.09.57.3.915 1.244.878-.12 1.756-.239 2.676-.315 0 0-.04-.046.32-.132M129 144.997s-.01.026.137.766c.853.301 1.707.603 2.722.904 0 0 .124.106.412.692.593.2 1.186.402 1.732.641 0 0 .032-.051.05.537.639.187 1.279.374 2.508.602.46.348.92.697 1.562 1.737.822.295 1.643.59 3.133.995.948.597 1.895 1.193 3.016 1.989.14.115.3.186.63.169l.118.777c.993.404 1.985.807 3.7 1.218 1.834-.805 3.669-1.61 6.22-2.576 2.74-1.6 5.48-3.198 9.208-5.373-4.386-2.362-7.76-4.178-11.451-6.416-.214-.274-.428-.549-.781-1.487q-1.46-.584-2.915-1.172s-.004.004.012-.917c-.01-2.77.352-5.611-.16-8.285-.328-1.707-1.947-3.168-3.61-4.821-.604-.177-1.208-.355-1.966-.915 0 0-.191-.365-.37-.98-.716-.325-1.432-.651-2.684-1.032-.419-.308-.838-.616-1.531-1.48-.568-.188-1.136-.377-2.395-.694-2.752-1.661-5.504-3.323-8.424-5.7a27 27 0 0 0-3.188-.952c-2.122-.702-4.244-1.405-6.908-2.062-.257.241-.514.482-.986.985 0 0-.339.008-.95.074-.271.29-.542.58-1.12 1.301-.482.199-.963.397-2.163.57-.477.445-.954.89-1.855 1.809-2.07 1.093-4.14 2.185-6.827 3.313-.295.27-.59.54-1.044 1.022 0 0-.261-.05-.925.02-.275.328-.55.655-1.067 1.403-.445.169-.89.338-1.958.557-.287.282-.575.564-1.146 1.342-.537.73-1.075 1.46-1.43 2.775.353.18.705.36 1.422.573 0 0 .249.268.39.944 1 .364 2.002.728 3.551 1.204.441.325.882.649 1.639 1.454.355.118.71.237 1.74.464 6.222 3.41 12.443 6.82 18.793 10.665 0 0 .136.433.256 1.124.994.393 1.989.785 2.923 1.232 0 0 .016-.08.293.458.555.187 1.11.375 1.687.547m69.906 79.116s-.01.115-.263-.52c-1.234-.521-2.468-1.041-4.148-1.596-.309-.098-.515-.3-.823-1.267-.85-.26-1.701-.519-3.222-.904-1.158-.721-2.315-1.442-3.69-2.512-.205-.203-.451-.31-1.405-.464-.801-.426-1.602-.852-2.598-1.517-.333-.131-.575-.027-1.112 1.09-.095 1.641-.262 3.282-.273 4.925-.087 13.385-.145 26.77-.193 40.724.579.122 1.158.244 2.33-.07 3.853-2.313 7.705-4.624 12.116-6.96.366-.054.733-.108 1.718-.107.565-.484 1.13-.969 2.263-1.906 2.35-1.894 6.46-3.58 6.714-5.722.725-6.11-.118-12.407-.535-18.974-.183-.205-.41-.326-1.31-.507-1.154-.532-2.307-1.065-3.787-2.037-.224-.283-.448-.566-.936-1.3-.319-.113-.637-.226-.846-.376m41.45 12.296c.175.863.351 1.726.883 3.173.949-.181 1.897-.363 3.443-.668.922-.394 1.843-.789 3.33-1.115.361-.388.723-.775 1.581-1.686 2.644-1.444 5.289-2.889 8.464-4.289.347-.362.695-.723 1.587-1.555.233-.059.466-.117.938-.207 0 0 .35-.317.901-.883.69-.378 1.38-.756 2.17-1.116 0 0 .15-.119.682-.652a24 24 0 0 1 2.11-1.532c.076-.097.233-.225.21-.285-.08-.212-.223-.4-.479-1.265.046-.45.091-.9.566-1.803a103 103 0 0 0-.56-4.414c.071-4.385.142-8.77.644-13.726-.253-1.794-.506-3.588-1.495-5.576-3.491 1.92-6.982 3.84-11.188 5.905a8787 8787 0 0 0-12.816 7.476c-.242.245-.337.538-.233 1.805-.101 7.338-.202 14.676-.739 22.413m-66.099-121.642c.182.16.394.248 1.331.442 2.578 1.95 5.025 1.84 7.767.052 3.044-1.984 6.357-3.556 10.034-5.34.327-.123.536-.353.924-.995 0 0 .42-.074 1.117-.003a41 41 0 0 0 1.836-1.69c.864-.437 1.729-.873 3.272-1.27a61 61 0 0 0 1.782-1.804c-.692-1.257-1.066-3.016-2.129-3.689-5.66-3.581-11.491-6.89-17.262-10.913-.65-.165-1.3-.33-2.671-.463-1.969.684-3.937 1.369-6.641 2.01-.493.448-.985.895-1.735 1.727-.424.127-.847.254-1.94.416-.29.316-.579.632-1.15 1.402-.335.1-.67.198-1.284.368-.185.078-.327.204-.87.912-.828.378-1.656.757-3.072 1.104a42 42 0 0 0-2.068 1.916c-.828.36-1.655.719-2.709.73-.272.354-.543.707-1.282 1.572-3.873 3.97 2.074 3.177 2.589 5.767 1.39.621 2.782 1.243 4.84 1.962 1.677 1.06 3.355 2.121 5.295 3.6.244.251.54.376 1.559.472.754.477 1.508.955 2.467 1.715"/><path fill="#2BB6E2" d="M148.787 101.097a220 220 0 0 1-1.25 18.669c-.316-2.545-.312-5.299-.425-8.511.057-3.332.23-6.204.49-9.499.394-.45.684-.532 1.185-.659m-20.317 9.298c-2.873-1.068-5.959-2.419-9.25-4.039 2.876 1.073 5.957 2.415 9.25 4.04m-20.922 2.293c-.75.715-1.835 1.483-3.278 2.249.743-.733 1.842-1.464 3.278-2.249m9.183-5.539c-.482.605-1.277 1.233-2.424 1.847.47-.617 1.29-1.22 2.424-1.847m-5.021 3.086c-.495.597-1.304 1.182-2.458 1.746.485-.6 1.316-1.18 2.459-1.746m31.187 8.454c-.765-.16-1.685-.589-2.746-1.304.77.154 1.68.595 2.746 1.305m-6.91-4.024c-.433.066-1.045-.126-1.782-.63.452-.085 1.027.143 1.782.63m-44.33 7.223c-.163.345-.632.709-1.418 1.072.16-.351.636-.702 1.418-1.072m8.069-4.775c.03.23-.208.472-.705.754-.027-.222.205-.482.705-.754m46.02 2.994c-.07.168-.358.18-.7.015.125-.175.304-.174.7-.015m-1.383-.544c-.215.141-.611.028-1.174-.353.22-.146.607-.024 1.174.353m-49.628.501c.033.231-.21.488-.72.793-.03-.225.207-.496.72-.793m6.964-4.071c.02.253-.262.524-.847.824-.02-.25.261-.528.846-.824m1.959-1.047c.023.25-.259.541-.856.855-.026-.255.263-.534.856-.855m35.632 1.645q-.304.208-1.12-.318.304-.208 1.12.318m-6.997-4.021q-.328.199-1.146-.396.329-.199 1.146.396m-1.876-1.07c-.24.142-.673 0-1.284-.448.246-.15.668.007 1.284.448"/><path fill="#14BFF7" d="M248.687 115.79c.4-.971.799-1.942 1.245-3.305 4.841 2.478 9.636 5.346 14.917 8.677 4.429 2.123 5.318 5.357 5.167 9.246-.121 3.138-.1 6.286-.006 9.426.193 6.39.478 12.777.726 19.166-.265.728-.53 1.456-.926 2.46-.5.345-.871.415-1.672.156-.629-.779-1.012-1.235-.999-1.68.245-8.54.633-17.076.723-25.615.015-1.419-1.226-2.85-2.21-4.284-.75.041-1.177.09-1.751-.21a52 52 0 0 1-.99-4.241c-.013-.619-.022-.972-.133-1.63-.68-.504-1.258-.703-1.807-.928.03-.025-.02.036-.042-.3-1.667-1.124-3.31-1.913-5.236-2.752-.744-.374-1.206-.697-1.729-1.377-1.54-1.003-3.02-1.65-4.66-2.325-.376-.118-.527-.27-.617-.484"/><path fill="#36AED4" d="M270.855 158.544a603 603 0 0 1-.845-18.71c-.095-3.14-.115-6.288.006-9.426.15-3.889-.738-7.123-4.847-9.1 4.017.105 6.076 2.023 5.947 6.621-.281 10.047-.122 20.106-.261 30.615"/><path fill="#2BB6E2" d="M211.42 105.856c-.94-1.497-1.697-3.16-2.457-5.156.927 1.063 1.857 2.46 2.864 4.23.077.37-.225.76-.407.926"/><path fill="#30ADD6" d="M241.142 106.563c-1.514.572-3.206.867-5.334 1.179 1.428-.475 3.292-.966 5.334-1.18"/><path fill="#2BB6E2" d="M211.377 114.673c-.32-.593-.47-1.552-.378-2.612.343.681.447 1.464.378 2.612"/><path fill="#30ADD6" d="M211.399 117.699c-.29.031-.343-.173-.202-.5.068-.09.31.299.202.5m4.279 1.131c.016.271-.29.583-.94.888-.023-.286.297-.566.94-.887m16.997-9.875c.025.255-.247.543-.83.84-.03-.263.251-.536.83-.84m11.688-.464c-.21.154-.611.07-1.178-.282.218-.166.602-.06 1.178.282m1.757 1.148q-.317.164-.998-.432.316-.163.999.432m-20.417 3.343c.015.256-.27.531-.867.812-.018-.26.273-.526.867-.812m24.23-1.213c-.223.23-.485.13-.818-.265.226-.315.508-.24.818.265"/><path fill="#DF781F" d="M99.028 166.646c.124.114.249.228.806.648a168 168 0 0 0 5.152 2.74c.424.324.847.65 1.708 1.288 1.018.558 1.598.804 2.179 1.05.357.272.714.544 1.48 1.092.798.428 1.187.58 1.575.73.616.506 1.233 1.012 2.05 1.924.199.406.249.902.249.902-2.96 1.771-5.921 3.543-9.382 5.598-.948.651-1.396 1.02-1.844 1.388-.93.382-1.862.765-3.603 1.115-4.347-.073-7.883-.114-11.42-.154 3.323-5.81 6.645-11.62 10.255-17.828.456-.43.625-.461.795-.493"/><path fill="#2BB6E2" d="M88.337 192.96c.407 9.219.473 18.703.71 28.183.064 2.624.632 5.236.992 8.265-.736-.683-2.143-1.773-2.15-2.871a859 859 0 0 1 .448-33.576"/><path fill="#C46927" d="M87.736 185.165c3.779-.158 7.315-.117 11.355-.022-.205.633-.913 1.211-2.079 2.013-.741.348-.884.564-.887.874-1.842.958-3.685 1.917-5.875 2.913a21 21 0 0 1-2.514-5.778"/><path fill="#2BB6E2" d="M105.66 239.114c.995.2 2.13.66 3.323 1.443-1.022-.18-2.102-.682-3.323-1.443m-16.389-77.898c.794.113 1.713.496 2.692 1.193-.815-.098-1.691-.51-2.692-1.193m9.682 5.117c-.095.345-.264.376-.689.441-.835-.407-1.415-.847-2.106-1.539.832.094 1.776.44 2.795 1.098m1.991 70.044c.878.08 1.915.442 3.024 1.155-.907-.058-1.887-.465-3.024-1.155m-5.058-3.037c.201-.131.525-.016.994.319-.194.122-.533.024-.994-.32m16.641 9.765c.008-.172.076-.13.092-.127.015.003.087.327.024.481-.062.154-.123-.183-.116-.354m-19.639-79.77c.197-.125.522-.01.994.326-.191.119-.529.017-.994-.326m-3.328 28.342c.089.284-.118.63-.644.99-.097-.3.125-.614.643-.99"/><path fill="#D97824" d="M244.769 175.995c.644-.468 1.288-.937 2.397-1.692.758-.54 1.05-.795 1.344-1.048 2.217-1.159 4.435-2.317 6.996-3.544 2.605 3.84 4.97 7.695 7.083 11.683 1.024 1.934 1.576 4.118 2.307 6.605-6.547-3.252-13.058-6.92-19.828-11.035-.272-.622-.286-.795-.299-.969"/><path fill="#36AED4" d="M265.975 130.044c.66 1.426 1.902 2.858 1.887 4.277-.09 8.54-.478 17.076-.723 25.614-.013.446.37.902.717 1.708-3.233 2.411-6.614 4.468-10.351 6.592-.716-.992-1.075-2.053-1.337-3.745 2.31-2.098 4.522-3.563 7.143-5.14 1.194-1.73 2.615-3.335 2.656-4.974.203-8.105.041-16.22.008-24.332"/><path fill="#2BB6E2" d="M245.179 243.876c1.17-.968 2.57-1.948 4.323-2.938-.673.738-1.701 1.485-2.967 2.467-.55.246-.846.32-1.356.471m5.094-3.055c.912-.879 2.158-1.803 3.776-2.691-.9.906-2.171 1.776-3.776 2.691m12.051-6.972c.934-.897 2.205-1.813 3.857-2.68-.919.92-2.22 1.79-3.857 2.68m6.976-4.091c.05-.867.426-1.761 1.108-2.718-.057.855-.421 1.773-1.109 2.718m.376-37.954c-.783-.143-1.696-.552-2.675-1.278.804.126 1.674.569 2.675 1.278M181.39 84.512c-.878.308-1.932.347-3.51.304.762-.246 2.049-.41 3.51-.304m19.499 11.153c-.508.08-1.154-.105-1.791-.605.557-.097 1.105.12 1.79.605m-41.265-.845c-.14.367-.588.754-1.355 1.142.137-.373.593-.748 1.355-1.143m-1.933 1.142q-.201.507-1.271 1.067.202-.507 1.272-1.067m-4.906 2.676c-.085.371-.436.776-1.076 1.17.078-.386.444-.762 1.076-1.17m-2.095 1.373q.014.383-.912.796-.013-.382.913-.795m55.796-1.094c-.106.11-.277-.018-.308-.06-.032-.042.202-.253.353-.299s.062.248-.045.36m-1.701-1.058c-.17.158-.374.067-.64-.234.188-.278.411-.214.64.234m-33.11-9.876q.025.387-.89.823-.024-.388.89-.823m3.07-1.862c.02.237-.24.476-.772.74-.017-.23.238-.485.772-.74"/><path fill="#181716" d="M202.988 300.943c-2.466-2.56-5.483-3.05-8.953-3.004-12.596.17-25.197-.055-37.79.186-2.19.042-4.352 1.622-6.93 2.19.526-9.39 1.456-18.478 2.537-27.801 2.581-2.947 5.319-4.13 9.226-3.754 5.253.503 10.598.04 16.307.096 1.75.03 3.096-.045 4.908-.073 6.322.872 12.935-2.168 17.834 3.855.944 9.7 1.903 19.003 2.861 28.305"/><path fill="#D7C0B2" d="M202.997 301.393c-.967-9.752-1.926-19.054-2.63-28.707.72-.226 1.186-.1 1.946.235 13.03 6.291 25.769 12.372 38.506 18.452 0 0 .058.37.1.553-3.223 1.988-6.434 3.903-9.766 5.576-8.242 4.138-16.53 8.183-24.829 12.209-.85.412-1.888.438-3.318.746 0-3.07 0-5.842-.01-9.064"/><path fill="#D8C0B2" d="M151.7 272.749c-.93 9.088-1.859 18.176-2.72 27.705.069 3.527.069 6.612.069 10.428-13.078-6.152-25.424-11.96-38.143-17.896-.215-.443-.058-.758.543-1.42 13.14-6.52 25.835-12.692 38.96-18.817.716.03 1.003.015 1.29 0"/><path fill="#E4781C" d="M149.98 272.703c-12.696 6.171-25.391 12.343-38.443 18.614.267-7.119.767-14.35 1.55-21.551.836-7.692 1.94-15.354 3.185-23.484.421-.486.585-.518.75-.55 0 0 .29.324.65.614 1.283.57 2.207.85 3.27 1.476 5.555 4.678 11.065 8.903 16.363 13.379 4.355 3.68 8.459 7.657 12.674 11.502"/><path fill="#2BB6E2" d="M116.944 245.398c-.087.366-.25.398-.664.451-.659-.372-1.068-.766-1.629-1.407.638.043 1.426.332 2.293.956"/><path fill="#E4781C" d="M240.875 290.9c-12.793-5.607-25.531-11.688-38.518-18.299 5.43-5.244 11.136-9.925 16.777-14.682 4.993-4.21 9.915-8.504 14.868-12.76.328-.087.65-.065 1.3.287.6.42.802.67.944.968 1.365 12.387 2.738 24.773 4.088 37.16.248 2.28.4 4.569.541 7.326"/><path fill="#2BB6E2" d="M236.563 246.503c-.46-.387-.661-.637-1.016-1.063 2.003-.256 4.1-.287 6.6-.27-1.485.505-3.376.963-5.584 1.333m6.732-1.523c.142-.336.577-.666 1.299-1.018-.144.327-.575.676-1.299 1.019"/><path fill="#743F1A" d="M262.88 124.26c.009.354.018.707-.287 1.401-1.407 1.06-2.499 1.778-3.885 2.552-1.091.643-1.888 1.23-3.011 1.811-1.18.621-2.033 1.25-3.202 1.944-1.356.77-2.395 1.472-3.434 2.176-.506.163-1.012.326-1.977.726-.725.505-.99.773-1.255 1.041 0 0-.449.086-.874.208-.758.266-.94.518-.97.879-1.443.69-2.885 1.378-4.905 2.115-.716.337-.855.626-.994.915-.174.082-.348.164-1.037.211-.645.247-.774.529-.903.81-.61.146-1.22.292-2.243.751-.559.617-.705.92-.851 1.223-.164.071-.328.143-.995.145-.684-.054-.866-.04-1.35-.185-6.468-5.196-12.635-10.233-18.802-15.27 1.913-1.692 3.826-3.384 6.267-5.381a509 509 0 0 0 2.779-1.65c.328.026.596-.088 1.194-.568.651-.472.913-.719 1.175-.965.42-.145.841-.29 1.658-.579.653-.216.769-.385.742-.65 3.415-1.864 6.727-3.972 10.292-5.481 1.684-.713 3.854-.278 6.303-.028.871.477 1.245.619 1.618.76.415.295.83.589 1.645 1.164.744.373 1.088.466 1.432.559.352.244.703.489 1.366.814.4.295.552.448 1.118.846 1.746 1.006 3.139 1.704 4.531 2.401.462.324.924.647 1.824 1.312 1.993 1.16 3.548 1.979 5.103 2.797 0 0 .05-.061.156.236.662.518 1.217.74 1.772.96"/><path fill="#F08521" d="M150.409 272.749c-4.645-3.891-8.75-7.869-13.104-11.548-5.298-4.476-10.808-8.7-16.225-13.581.303-.907.605-1.266.908-1.626 0 0 .012.007.33-.026 1.359-.707 2.398-1.38 3.437-2.053 1.254-.592 2.507-1.184 4.233-2.007.768-.371.92-.605.93-.933 2.203-1.213 4.406-2.426 7.134-3.887a29 29 0 0 0 2.345-1.602c-.135-.137-.27-.275.146-.258 2.525-.7 4.5-1.553 6.475-2.407.097.794.194 1.587.273 3.206.057 4.219.132 7.611.208 11.004-.065.432-.13.865-.209 1.924.561 1.428 1.136 2.231 1.712 3.034 0 0-.002.012.121.3 1.046.714 1.968 1.14 2.89 1.567a664 664 0 0 1 4.268 2.605c1.236.66 1.986 1.008 2.736 1.357 2.805 1.667 5.61 3.333 8.82 5.26.405.261.726.489.726.489l.39-.048c1.357.814 2.714 1.628 4.54 2.776.828.418 1.186.502 1.544.586 0 0 .05.108.152.237.102.128.385.298.385.298l.312-.107c.136.174.272.348.715.806.307.284.38.637.38.637-5.305.048-10.65.511-15.903.008-3.907-.375-6.645.807-9.226 3.754-.44.25-.727.266-1.443.235"/><path fill="#E0781E" d="M204.856 188.032a260 260 0 0 1-5.084-2.517c-.906-.417-1.308-.54-1.71-.663 0 0-.005.094-.079-.19-.81-.849-1.547-1.415-2.18-2.436.383-4.583.664-8.71 1.093-13.025a74 74 0 0 1 1.069-1.22s.031.024.313-.003c.72-.358 1.16-.69 1.598-1.02 2.237-1.16 4.474-2.321 7.303-3.802 2.347.029 4.103.378 5.859.727a516 516 0 0 1 6.786 4.237c1.032.535 1.594.729 2.156.922.434.325.868.65 1.75 1.281a61 61 0 0 0 3.28 1.645 559 559 0 0 1 6.788 4.134l.764.546.436-.052 7.05 4.374c.354.22.606.364.606.364l.218-.193c1.607 1.028 3.214 2.056 4.747 3.703-14.303 1.475-28.533 2.332-42.763 3.188"/><path fill="#74401A" d="M128.04 114.892c2.752 1.661 5.504 3.323 8.748 5.314 1.054.526 1.615.723 2.177.92.42.308.838.616 1.684 1.2a77 77 0 0 0 2.436 1.371s.191.365-.036.793c-6.597 5.855-12.967 11.283-19.337 16.711-6.222-3.41-12.443-6.82-19.156-10.53-.85-.416-1.207-.53-1.565-.644-.44-.324-.882-.648-1.747-1.305-1.372-.737-2.32-1.143-3.268-1.548 0 0-.25-.268-.561-.546-.64-.48-.966-.68-1.292-.88.537-.73 1.075-1.46 2.052-2.493.736-.565 1.033-.827 1.33-1.089.444-.169.89-.338 1.763-.798.72-.588 1.01-.885 1.302-1.182 0 0 .26.05.644-.085.682-.397.98-.66 1.278-.922 2.07-1.093 4.14-2.185 6.743-3.581 1.036-.696 1.538-1.088 2.04-1.48.482-.199.963-.397 1.9-.849.73-.54 1.003-.827 1.276-1.114 0 0 .34-.008.722-.148.636-.39.89-.64 1.144-.89 2.123.702 4.245 1.405 6.89 2.41a72 72 0 0 0 2.833 1.365"/><path fill="#EF8522" d="M172.967 118.634s.342.358.712.634c.702.352 1.033.428 1.364.504.613.577 1.225 1.154 2 2.435.262 9.078.363 17.453.464 25.828-.11.233-.22.465-.61 1.118a4.7 4.7 0 0 1-.592.716 962 962 0 0 1-7.089-4.084 45 45 0 0 0-2.777-1.34s-.183.424-.29-.019c-.799-.737-1.491-1.031-2.184-1.325-3.596-2.234-7.193-4.468-11.137-7.085-.436-.666-.614-.873-.882-1.002.075-8.62.15-17.24.43-26.43.321-.704.438-.836.554-.97 2.263 1.19 4.525 2.38 7.31 3.894a202 202 0 0 0 4.768 2.466c.46.372.918.744 1.787 1.292.41.176.774.169.774.169s.057-.24.207.137c.859.689 1.567 1.002 2.275 1.315 0 0 0 .082.157.336.696.445 1.234.635 1.772.826 0 0 .007-.055.085.162.077.218.46.438.46.438z"/><path fill="#EE8523" d="M159.013 100.028c.828-.36 1.655-.719 2.983-1.365 1.052-.723 1.604-1.16 2.156-1.597a91 91 0 0 0 2.874-1.362c.65-.307.774-.484.76-.756.335-.1.669-.199 1.463-.578.76-.572 1.06-.865 1.36-1.157a14 14 0 0 0 1.729-.63c.976-.643 1.494-1.04 2.012-1.435 1.969-.684 3.937-1.369 6.425-1.82a65 65 0 0 0 2.15.849c5.773 3.403 11.605 6.713 17.264 10.294 1.063.673 1.437 2.432 1.595 3.992a23 23 0 0 0-1.927 1.462c-.864.436-1.729.872-3.11 1.56-1.016.624-1.516.996-2.016 1.368 0 0-.42.074-.817.223-.745.272-.95.515-1.008.88-3.196 1.75-6.509 3.322-9.553 5.306-2.742 1.788-5.189 1.898-8.176-.332-.602-.536-.84-.591-1.126-.444a402 402 0 0 1-2.7-1.722c-.752-.392-1.069-.497-1.385-.601a1632 1632 0 0 0-5.548-3.498c-1.827-.988-3.139-1.661-4.45-2.334-.39-1.902-6.336-1.11-1.992-5.34.805-.376.995-.61 1.037-.963"/><path fill="#CA641C" d="M205.018 188.28c14.068-1.104 28.298-1.96 42.803-3.148.83-.16 1.385.01 2.423.47.868.418 1.254.546 1.64.674a213 213 0 0 0 3.39 2.276c.873.409 1.261.522 1.649.636.245.217.49.435 1.126.947.91.48 1.432.665 1.953.85l3.438 2.888c-4.959 2.948-9.533 5.668-14.63 8.666a28 28 0 0 0-1.985 1.369c-2.833 1.27-5.666 2.54-9.014 3.542-.92-.392-1.324-.516-1.727-.64 0 0-.004.1-.13-.19-.702-.5-1.278-.708-1.853-.915-4.145-2.522-8.29-5.043-12.856-7.83-.64-.513-.9-.572-1.203-.442-1.817-1.09-3.634-2.18-5.926-3.595a18 18 0 0 0-2.059-.968s-.027.096-.154-.22c-1.716-1.102-3.305-1.888-4.894-2.673-.61-.483-1.22-.965-1.991-1.696"/><path fill="#EF8520" d="M163.975 256.068c-.589-.43-1.178-.86-2.221-1.592a30 30 0 0 0-2.778-1.18c-.236-.277-.472-.553-.837-1.538-.125-9.043-.12-17.377-.116-25.71.213-.277.425-.553 1.108-1.04a45 45 0 0 0 2.908-1.992c.312.046.594-.026 1.313-.466 1.59-.99 2.712-1.73 3.835-2.468 1.131-.552 2.263-1.103 3.912-1.91a52 52 0 0 0 3.044-2.109c.431-.064.862-.128 1.813-.172.686.059.851.098 1.017.138.032 14.685.064 29.37.03 44.735-.058.85-.05 1.02-.043 1.19 0 0 .04.045-.341.035-1.094-.103-1.806-.196-2.518-.289-.121-.33-.352-.54-1.105-.92a134 134 0 0 0-5.022-2.485 28 28 0 0 0-1.228-.872c-1.217-.638-1.994-.996-2.77-1.355"/><path fill="#C9631C" d="m127.817 203.919-.405-.005s-.358.188-.797.397c-.917.609-1.397 1.01-1.876 1.41 0 0 .123.054-.213.01-.809.314-1.281.672-1.754 1.03 0 0 .107.062-.224.035-.82.344-1.31.714-1.8 1.085-1-.268-2-.535-3.467-1.15-1.42-.764-2.373-1.181-3.325-1.598a43 43 0 0 0-1.796-1.392 17 17 0 0 0-2.096-.892c-1.44-.935-2.88-1.87-4.752-3.074-.746-.355-1.06-.44-1.373-.526 0 0-.053-.187-.303-.423-.997-.576-1.745-.917-2.493-1.257-.11-.298-.316-.494-1.003-.866a62 62 0 0 0-3.146-1.637s-.164-.248-.415-.542a5.8 5.8 0 0 1-.525-1.498c.308-.022.586-.125 1.24-.577a28 28 0 0 0 1.71-1.442s-.004-.007.289 0c.72-.347 1.148-.702 1.575-1.056.24-.077.48-.153 1.123-.4.643-.228.737-.377.687-.618 1.258-.65 2.516-1.3 4.303-2.215 1.26-.783 1.992-1.3 2.722-1.816.2-.02.4-.039 1.173.26 4.991.823 9.398 1.535 13.832 1.789 9.6.55 19.213.865 28.821 1.276-.426.375-.853.75-1.737 1.39a26 26 0 0 0-1.812 1.372 158 158 0 0 0-3.984 1.97c-.785.414-.974.67-1.016 1.034-2.479 1.293-4.958 2.586-7.923 4.127-.797.39-.978.63-1.03.968-.908.412-1.816.825-3.211 1.504-.944.637-1.4 1.007-1.855 1.377 0 0 .037.033-.295.044-1.171.643-2.01 1.275-2.85 1.906"/><path fill="#E1771D" d="M153.794 188.204c-9.873-.388-19.486-.703-29.086-1.253-4.434-.254-8.84-.966-13.53-1.79 6.32-4.327 12.911-8.333 20.03-12.621.994-.664 1.461-1.046 1.929-1.428 0 0-.083-.054.234-.057.615-.285.912-.566 1.209-.847l11.464-6.14a43 43 0 0 0 2.563-1.814c.316.088.625.066 1.334.093.964.308 1.52.457 2.076.606.879.595 1.757 1.191 2.926 2.017.29.231.28.571.217 1.06.314 7.193.69 13.9 1.067 20.605-.723.516-1.445 1.031-2.433 1.57"/><path fill="#DF781F" d="M133.976 152.696c.274.202.548.404 1.273.862.86.389 1.268.522 1.676.655.236.231.472.462 1.017.905.31.21.624.431.624.431l.381-.048 5.022 3.562c-1.039.935-1.829 1.646-3.127 2.633-1.52.985-2.533 1.693-3.546 2.401-.975.45-1.95.898-3.44 1.639a82 82 0 0 0-3.093 2.16c-1.76.911-3.52 1.823-5.773 2.985-.7.523-.906.794-1.113 1.066-.516.205-1.032.409-1.98.847-.575.341-.718.45-.861.558-1.38-.425-2.759-.85-4.608-1.595-.799-.423-1.127-.526-1.456-.628-.646-.406-1.291-.812-2.39-1.509-.824-.413-1.195-.535-1.567-.656-.58-.435-1.16-.87-2.223-1.57a140 140 0 0 0-2.791-1.393c-1.23-.814-2.458-1.628-3.815-3.06 1.174-3.001 2.477-5.383 4.125-7.84 4.539-3.483 8.734-6.892 12.928-10.301.962.412 1.923.825 3.407 1.54a929 929 0 0 0 6.436 3.46s.03.17.137.318c.106.147.373.37.373.37l.34-.073c.328.233.656.466 1.462.975.85.394 1.221.513 1.593.632 0 0 .011-.023.084.199s.448.484.448.484z"/><path fill="#EF8521" d="M233.833 244.951c-4.784 4.464-9.706 8.759-14.699 12.968-5.641 4.757-11.347 9.438-17.07 14.472-.511.194-.978.069-1.683-.104-5.153-5.672-11.766-2.632-18.028-3.686-.407-.228-.407-.611-.407-.611s.05.02.37-.022c1.158-.662 1.996-1.282 2.834-1.902 1.501-.76 3.003-1.52 4.865-2.478.595-.27.676-.423.605-.657.714-.34 1.427-.68 2.607-1.266.57-.38.673-.513.776-.645 2.847-1.517 5.695-3.035 9.06-4.812.794-.524 1.07-.788 1.346-1.052.438-.149.877-.297 1.632-.622.316-.177.535-.335.535-.335l-.053-.265a42 42 0 0 0 3.626-1.877c.9-6.659 1.261-12.894 1.622-19.129.666.068 1.33.136 2.499.53a54 54 0 0 0 2.767 1.432c.458.344.915.687 1.788 1.242.414.213.847.242.847.242s-.013-.071.186.19c.74.47 1.28.68 1.822.891 0 0 .16-.297.204.092.748.7 1.454 1.011 2.159 1.323 1.069.684 2.138 1.368 3.623 2.353.735.396 1.055.492 1.374.587.472.335.943.67 1.886 1.26 1.016.449 1.561.642 2.107.834.21.28.42.56.8 1.047"/><path fill="#EC8524" d="m158.067 161.84-3.097-2.858a355 355 0 0 1 5.3-3.313 27 27 0 0 0 2.073-1.523c2.003-.99 4.006-1.98 6.543-2.866 1.078.27 1.621.435 2.165.6 0 0 .02.098.12.247.1.15.395.337.395.337l.337-.094c1.381.867 2.763 1.734 4.667 2.954 2.244.165 3.965-.024 5.685-.213 1.449-.741 2.897-1.482 4.76-2.431.673-.292.804-.47.806-.743 0 0 .1.04.401-.016a15 15 0 0 0 1.783-.913c1.192.606 2.385 1.211 3.944 2.036.367.219.642.405.642.405l.317-.1c.341.25.682.5 1.543 1.084 1.737 1.34 3.17 2.183 4.094 3.411.565.751.349 2.091.483 3.167 0 0-.028-.014-.354.018-1.477.995-2.628 1.959-3.78 2.922-3.855 2.087-7.711 4.173-12.1 6.544-1.01.663-1.487 1.042-2.241 1.451-.714.35-1.148.668-1.952.982a105 105 0 0 1-4.599-.927c-.001-.002-.005-.003-.14-.28-.7-.49-1.265-.703-2.062-1.147-2.395-1.358-4.557-2.485-6.87-3.883-.714-.507-1.276-.743-2.026-1.218-1.286-.722-2.385-1.206-3.664-1.973-1.178-.742-2.176-1.2-3.173-1.66"/><path fill="#EF8521" d="M172.358 212.767c-.693.229-1.387.457-2.53.928-.888.603-1.325.965-1.761 1.327-.34-.038-.642.049-1.362.498-.947.618-1.44.998-1.935 1.379 0 0-.45.044-.864.185-.755.27-.956.513-1.015.873-.519.199-1.038.398-1.99.82-.782.293-1.13.365-1.828.189-.925-7.024-1.414-13.81-2.147-20.571-.163-1.509-1.181-2.925-1.887-4.513-.08-.13-.275-.363-.118-.56.49-.561.824-.924 1.157-1.286a30 30 0 0 0 2.063-.867 75 75 0 0 0 3.027-2.096 412 412 0 0 0 3.894-1.97c1.096-.728 1.705-1.194 2.315-1.66 0 0-.07-.038.266-.093 1.003-.534 1.668-1.013 2.628-1.477.908-.428 1.52-.87 2.15-1.323.019-.012.062-.019.371-.074 1.648-.204 2.987-.353 4.326-.503-.041 8.74-.082 17.478-.295 26.78-.401.752-.513.996-.506 1.294-.69.403-1.379.806-2.555 1.522-.793.608-1.098.903-1.404 1.198"/><path fill="#F08520" d="M247.446 237.732c-.922.394-1.843.789-3.455 1.151-1.114-.834-2.056-1.78-1.88-2.415 1.334-4.807 2.563-9.686 4.452-14.285 2.462-5.995 5.502-11.753 8.293-17.613 3.492-1.92 6.983-3.839 10.827-5.234.472 2.223.592 3.923.711 5.623-.07 4.385-.142 8.77-.262 13.993.027 1.902.104 2.964.18 4.027-.046.45-.091.9-.187 1.925-.042.753-.033.931-.025 1.11-.589.466-1.178.932-2.064 1.538-.298.14-.54.239-.54.239l.057.255c-.69.378-1.38.756-2.491 1.335-.693.27-.793.441-.72.713-.233.059-.466.117-1.233.39-.884.575-1.234.936-1.584 1.297-2.644 1.444-5.289 2.889-8.447 4.603-.887.63-1.26.989-1.632 1.348"/><path fill="#EB8727" d="M195.065 255.067c-3.852 2.312-7.704 4.623-12.153 7.012-.982-.14-1.367-.357-1.752-.573.066-13.386.124-26.772.211-40.157.011-1.643.178-3.284.7-5.28.427-.355.88-.496.88-.496.8.426 1.602.852 2.807 1.566.404.288.767.558.767.558l.45-.033c1.159.72 2.316 1.442 3.983 2.499 1.312.633 2.115.93 2.918 1.228.103.307.31.51.873.848.255.242.353.684.04.974-.47 9.757-.663 19.225-.738 28.693-.008 1.051.66 2.107 1.014 3.16"/><path fill="#DE7820" d="M253.297 165.157s-.104.441-.485.667c-.63.492-.88.758-1.13 1.024a1378 1378 0 0 1-6.895 3.639c-.995.662-1.453 1.057-1.91 1.451-1.385.45-2.77.9-4.744 1.222-.774-.13-.958-.13-1.142-.13a608 608 0 0 1-5.478-3.376c-.808-.432-1.156-.554-1.505-.677-.903-.585-1.806-1.17-3.05-1.984-.5-.45-.694-.487-.923-.339-.15-.157-.3-.314-.842-.754-.593-.543-.848-.616-1.156-.5-.735-.441-1.47-.882-2.673-1.696a14 14 0 0 0-2.233-1.043l-4.638-3.577c4.638-2.745 8.821-5.22 13.56-7.96a24 24 0 0 0 2.464-1.918c1.527-.695 3.053-1.39 5.089-1.846 3.818 2.77 7.126 5.3 10.466 8.167 2.429 3.435 4.827 6.532 7.225 9.63"/><path fill="#754019" d="M246.041 155.19c-3.309-2.53-6.617-5.06-10.124-7.88 3.379-2.517 6.954-4.744 11.078-7.181.8-.468 1.052-.727 1.305-.985 0 0 .395-.074.8-.205.615-.381.824-.631 1.032-.881.315-.135.63-.27 1.396-.667 2.14-1.265 3.828-2.268 5.817-3.302.581-.307.86-.584 1.291-.878.151-.017.34-.255.659-.26a13.7 13.7 0 0 0 2.776-1.839c-.09-.057.083.072.372.071.728-.336 1.166-.672 1.604-1.008.428-.048.855-.097 1.605-.138.356 8.119.518 16.234.315 24.34-.041 1.638-1.462 3.242-3.032 4.852-6.155-1.353-11.524-2.696-16.894-4.04"/><path fill="#F08520" d="M189.914 145.956c-1.506.792-3.01 1.585-4.883 2.546-.614.216-.705.362-.639.607-.251.038-.503.077-1.334.16-.753.052-.925.06-1.098.068-.118-.839-.236-1.677-.275-3.172.012-.824-.053-.992-.118-1.16.092-6.606.009-13.222.39-19.811.104-1.817 1.593-3.553 2.933-5.544.757-.288.887-.464.874-.745 0 0 .135.056.421-.01.522-.313.758-.56.995-.807 0 0 .46-.09.865-.237.731-.278.898-.52.906-.871 1.177-.588 2.353-1.177 4.01-1.996.678-.475.877-.72 1.076-.965.182-.052.364-.103.962-.298.728-.232.89-.437.901-.76 1.243-.527 2.487-1.053 4.185-1.882a112 112 0 0 1 1.808-1.142s.065.051.327.053c.44.02.618.037.768.41-.967 2.698-1.907 5.043-2.888 7.863-.399 7.583-.757 14.692-1.305 22.012a98 98 0 0 1-1.797 1.721s.002.004-.285.016c-.713.355-1.138.698-1.563 1.04-.565.213-1.13.426-2.217.872a45 45 0 0 0-3.02 2.032"/><path fill="#E0771E" d="M123.776 141.42c6.306-5.647 12.676-11.075 19.35-16.74.908-.058 1.512.12 2.63.706.838 3.101 1.026 5.819 1.53 8.476.335 1.759 1.124 3.431 1.71 5.142 0 0 .004-.004.122.289 1.057.71 1.997 1.126 2.936 1.543.214.274.428.549.796 1.466.56 4.198.966 7.753 1.373 11.307-1.835.805-3.67 1.61-6.04 2.16-1.444-.698-2.351-1.141-3.259-1.584 0 0-.023-.156-.125-.304-.275-.39-.475-.414-.701-.22-.948-.597-1.895-1.193-3.354-2.117a45 45 0 0 0-2.804-1.36c-.46-.348-.92-.697-1.827-1.322-.991-.49-1.535-.701-2.079-.913 0 0-.032.051-.155-.251-.715-.51-1.306-.718-1.897-.925 0 0-.124-.106-.403-.366-1.05-.636-1.82-1.01-2.59-1.384 0 0 .01-.025-.134-.29-.702-.45-1.261-.635-1.82-.82 0 0-.016.08-.148-.215-1.059-.74-1.985-1.183-2.91-1.628 0 0-.137-.433-.201-.65"/><path fill="#753F19" d="M119.06 144.522a121 121 0 0 1-13.137 10.51c-4.478 1.065-8.222 2.127-11.967 3.188-.42-2.443-.84-4.886-1.235-8.211.121-7.25.216-13.618.311-19.986 1.02.325 2.038.65 3.557 1.304a151 151 0 0 0 4.438 2.364c.28.181.56.362 1.285.797.843.391 1.242.53 1.641.668.376.309.751.617 1.538 1.209.778.4 1.144.516 1.51.632 1.45.942 2.901 1.883 4.855 3.048.67.255.837.287 1.005.32 2.007 1.293 4.014 2.586 6.2 4.157"/><path fill="#DD7820" d="M211.784 128.17c6.288 4.58 12.455 9.617 18.899 15.03.277.376.32.812.32.812a669 669 0 0 0-6.168 3.642 45 45 0 0 0-1.828 1.375c-.545.205-1.09.41-2.07.886-.674.513-.914.757-1.153 1a793 793 0 0 0-6.951 3.703c-.937.64-1.392.993-1.848 1.346-.758.058-1.517.115-2.828-.043-1.093-.39-1.634-.565-2.175-.74 0 0-.212-.3-.543-.572a7.4 7.4 0 0 0-1.418-.66 1354 1354 0 0 1-4.93-3.119 22 22 0 0 0-2.04-.97c-.06-.35-.248-.602-.86-1.068-.353-.476-.41-.642-.465-.808 2.3-1.438 4.6-2.877 7.428-4.574.823-.51 1.117-.763 1.41-1.015 7.65-1.864 7.423-7.792 7.22-14.225"/><path fill="#EF8622" d="M209.962 226.108c-.445-.33-.89-.66-1.675-1.332-.68-.764-1.018-1.186-.987-1.726 9.41-2.793 18.452-5.469 27.751-8.095.434.063.609.077.993.135.21.043.637.02.637.02.05 7.316.1 14.631-.115 22.582-.384 1.161-.503 1.686-.857 2.323-.401.166-.567.22-.732.274 0 0-.36-.313-.767-.602a54 54 0 0 0-3.22-1.588 98 98 0 0 0-1.791-1.26c-.586-.498-.85-.575-1.167-.475a268 268 0 0 0-3.908-2.434 32 32 0 0 0-2.124-.94s-.137-.238-.468-.515c-1.735-.978-3.14-1.68-4.545-2.381 0 0-.177-.277-.512-.524a7 7 0 0 0-1.474-.547c-.434-.336-.867-.672-1.738-1.324a46 46 0 0 0-3.3-1.59"/><path fill="#EB8726" d="M189.958 214.523a273 273 0 0 1-4.593-2.818 65 65 0 0 0-3.358-1.78c-.222-8.323-.445-16.646-.597-25.693a51 51 0 0 1 .586-3.225c.007-.002.016-.013.27.015.413-.026.574-.08.986.047.825.403 1.398.624 2.019 1.042.048.195.371.435.371.435l.402-.028c1.324.832 2.649 1.663 4.493 2.828a55 55 0 0 0 3.484 1.585c.57.484 1.138.968 1.855 2.098.462 2.748.776 4.85.699 7.05-1.146 6.774-1.9 13.448-2.655 20.123-.386-.073-.772-.145-1.59-.488a48 48 0 0 0-2.372-1.191"/><path fill="#C7631D" d="M196.966 195.98c-.314-2.101-.628-4.203-.928-6.717.375-.345.737-.28 1.558.102a68 68 0 0 0 3.333 1.744s.048-.09.1.162c.05.251.466.508.466.508l.487-.03c1.738 1.068 3.475 2.135 5.719 3.547a149 149 0 0 0 5.305 2.684s-.005.023.134.3c1.05.703 1.963 1.128 2.875 1.554 0 0 .246.284.585.541a7.5 7.5 0 0 0 1.403.61c.462.361.925.721 1.845 1.278.458.197.927.28.927.28.102.266.287.449.936.835 1.35.732 2.32 1.176 3.29 1.62.424.333.848.667 1.713 1.306 1.013.525 1.585.744 2.156.963 0 0-.014-.126.02.239 1.735 1.31 3.435 2.255 5.135 3.2.533.311 1.066.622 1.756 1.547.123 1.34.089 2.067.054 2.794-.175-.015-.35-.029-.93-.388-7.575-3.77-14.744-7.195-22.372-10.84l-8.043 18.187c-.332.005-.662-.01-1.343-.229-.589-.418-.867-.483-1.184-.377-.138-.107-.277-.214-.72-.596-.305-.276-.437-.725-.192-.953-1.198-8.109-2.642-15.99-4.085-23.87"/><path fill="#E27922" d="M100.035 201.592c.126.115.253.23.779.677 1.34.763 2.28 1.197 3.22 1.63.464.35.927.698 1.764 1.275.374.228.732.474.732.474l.433-.03c2.954 1.859 5.907 3.717 9.054 6.261.416 9.71.638 18.736.565 27.863a10 10 0 0 1-1.54.11c-1.43-.925-2.86-1.849-4.653-3.07-.364-.297-.484-.757-.152-.81.357-1.27.822-2.71.338-3.67-4.97-9.856-10.077-19.643-15.254-29.392-.155-.292-1.498.046-2.398-.305-.108-1.488-.106-2.581-.104-3.674 0 0 .211-.053.545-.109 2.446.886 4.558 1.828 6.67 2.77"/><path fill="#EC8625" d="M141.998 230c-.537.22-1.073.44-2.105.917-1.166.78-1.837 1.304-2.508 1.827-2.973 1.594-5.946 3.188-9.473 5.026a71 71 0 0 0-3.683 2.327s-.13-.059-.48-.038c-.79-.067-1.23-.156-1.67-.244.012-7.469.024-14.937.48-22.754 1.709-.021 2.974.293 4.233.635 7.349 1.999 14.696 4.004 22.127 6.372.126.612.167.858.187 1.32-.021.214-.042.645-.042.645s-.054-.036-.38.029c-1.803 1.012-3.279 1.96-4.754 2.907l-.443-.001s-.4.191-.792.408c-.494.352-.596.488-.697.623"/><path fill="#2B3643" d="M148.835 223.703q-11.02-3.007-22.043-6.007c-1.259-.342-2.524-.656-4.157-1.136-.537-.444-.625-.758-.613-1.657a19 19 0 0 0-.121-1.887s.16-.378.427-.672a58 58 0 0 1 1.441-1.411s.16.031.447-.058c.513-.324.74-.56.965-.796 0 0 .468-.127.857-.28.679-.252.845-.452.888-.755.186-.04.372-.079 1.049-.21.801-.235.98-.476 1.03-.814 0 0-.002-.017.259-.073.433-.344.606-.63.78-.918 0 0-.047-.025.269-.043.769-.334 1.222-.652 1.675-.969 0 0 .024-.007.32-.053a10 10 0 0 0 1.597-.95s.113-.008.429-.088c1.086-.411 1.857-.744 2.995-1.01 1.546 1.265 3.106 2.269 3.837 3.697 2.705 5.287 5.136 10.715 7.67 16.09"/><path fill="#F1851F" d="M93.034 203c.79-.044 2.132-.382 2.287-.09 5.177 9.749 10.284 19.536 15.254 29.391.484.961.019 2.401-.67 3.606-1.699-.451-2.734-.889-3.77-1.326-.097-.302-.298-.5-.967-.884-1.307-.688-2.247-1.083-3.188-1.478a44 44 0 0 0-2.224-1.75c-1.244-.662-2.013-1.026-2.782-1.391-.884-.616-1.769-1.232-2.904-2.14-.25-.292-.203-.642-.245-.91a4.5 4.5 0 0 0-.763-1.049s-.231.09-.264-.356c.057-7.504.147-14.563.236-21.622"/><path fill="#2B3542" d="M204.585 222.296c2.516-6.194 5.127-12.098 7.948-18.477 7.628 3.645 14.797 7.07 22.113 10.791-8.894 2.971-17.935 5.647-27.675 8.403-1.139.094-1.58.107-2.02.12a9 9 0 0 1-.366-.837"/><path fill="#C9621B" d="M148.92 224.068c-2.618-5.74-5.05-11.168-7.754-16.455-.73-1.428-2.291-2.432-3.794-3.897-.322-.268-.278-.677-.278-.677 2.46-1.297 4.92-2.595 7.904-4.19a26 26 0 0 0 2.176-1.772 98 98 0 0 0 3.938-1.86 16 16 0 0 0 1.355-1.045s.322.019.73-.11c.795-.268 1.181-.406 1.567-.543 0 0 .195.233.232.78a1445 1445 0 0 1-4.949 30.447c-.354.368-.62.452-.92.426a26 26 0 0 0-.208-1.104"/><path fill="#EB8625" d="M156.578 186.557a180 180 0 0 1-1.08-20.45c1.053-.19 1.707.03 2.564.49 1.73.985 3.257 1.729 4.949 2.737.74.472 1.315.68 1.895.838.005-.05-.085-.006.083.268 1.117.718 2.067 1.163 3.19 1.812.66.41 1.146.616 1.757 1.054.449.348.773.462 1.103.624.006.047.098.021.153.214s.365.444.365.444.397-.05.636.126c.435.21.63.245.914.642-1.174 1.67-2.437 2.978-3.98 4.34-.886.491-1.494.93-2.423 1.37-1.177.62-2.032 1.236-2.886 1.853-.811.366-1.622.732-2.837 1.322-.68.325-.803.52-.775.81a82 82 0 0 1-3.628 1.506"/><path fill="#E98727" d="M201.013 226.23a71 71 0 0 1 3.833 1.875c.56.543.811.641 1.128.572.227 6.224 1.07 12.52.345 18.63-.255 2.144-4.365 3.829-7.297 5.875-.987.077-1.391.003-2.109-.305-.333-1.486-.563-2.78-.336-3.986 1.422-7.564 2.946-15.11 4.436-22.661"/><path fill="#D6782A" d="M254.5 204.643c-2.435 5.787-5.475 11.545-7.937 17.54-1.889 4.599-3.118 9.478-4.451 14.285-.177.636.765 1.581 1.58 2.477-.557.275-1.505.457-2.55-.025-.181-1.412-.267-2.16-.352-2.91.1-7.337.202-14.675.474-22.604.394-.839.493-1.128.469-1.46 4.136-2.41 8.273-4.82 12.766-7.303"/><path fill="#DB7B29" d="M157.665 226.1c.354 8.281.35 16.615.346 25.416-.792.17-1.585-.127-2.841-.727a18 18 0 0 0-2.124-.901c-.327-6.52-.979-13.05-.734-19.549.055-1.456 3.247-2.795 5.353-4.24"/><path fill="#E07822" d="M200.85 226.01c-1.327 7.771-2.85 15.317-4.273 22.881-.227 1.207.003 2.5.258 4.283.12.922.004 1.315-.112 1.707-.366.054-.733.108-1.379.174-.633-1.042-1.3-2.098-1.293-3.149.075-9.468.268-18.936 1.072-28.627 1.689.168 2.73.56 3.772.95 0 0 .01-.115.07.145.39.363.72.465 1.05.567.224.283.448.566.835 1.069"/><path fill="#DF7723" d="M150.172 224.573c1.62-9.91 3.24-19.82 4.904-30.145.669 1.042 1.687 2.458 1.85 3.967.733 6.76 1.222 13.547 1.991 20.826-.228.906-.648 1.309-1.069 1.712-.8.333-1.599.666-2.85 1.21-.735.343-.889.567-.91.88-.336-.013-.641.076-1.41.528a44 44 0 0 1-2.506 1.022"/><path fill="#DF771E" d="M198.985 140.064c.358-7.109.716-14.218 1.392-21.628 2.211 1.023 4.103 2.346 5.995 3.669-.017 4.505-.035 9.01-.369 13.94-.568.542-.668.736-.615 1.009-1.284.674-2.569 1.348-4.361 2.316-1.02.428-1.53.56-2.042.694"/><path fill="#E07622" d="M196.575 196.08c1.834 7.782 3.278 15.662 4.179 23.721-1.285-.086-2.028-.35-2.77-.614 0 0-.24-.296-.586-.552-.701-.358-1.058-.46-1.414-.563-.582-.465-1.164-.93-1.905-1.632.596-6.913 1.35-13.587 2.496-20.36"/><path fill="#E5862A" d="M196.747 169.388c-.28 4.128-.561 8.255-1.284 12.75-1.104.163-1.767-.042-2.43-.247-2.106-1.295-4.213-2.59-6.782-4.2-.607-1.059-.752-1.802-.897-2.546 1.453-.76 2.906-1.522 4.894-2.565a29 29 0 0 0 2.088-1.435c.48-.19.959-.378 1.929-.827a32 32 0 0 1 2.482-.93"/><path fill="#EB8525" d="M246.072 155.527c5.339 1.006 10.708 2.349 16.454 3.813-1.836 1.587-4.049 3.052-6.47 4.743-.836.47-1.464.716-2.426 1.017-2.731-3.04-5.13-6.138-7.558-9.573"/><path fill="#11C1F8" d="M185.04 174.97c.459.919.604 1.662.865 2.684a15.4 15.4 0 0 1-.139 3.768c-.199.422-.543.493-.543.493-.573-.222-1.146-.443-2.066-1.015-.613-.202-.879-.054-1.145.094 0 0-.009.011-.285-.016a7 7 0 0 0-.814.01 12 12 0 0 1-2.768-.253 81 81 0 0 0-3.349-1.156 218 218 0 0 1-.767-5.06c-.02-1.076-.024-1.796.304-2.509.777.001 1.22-.006 1.664-.012 0 0 .004.001.038.365 1.568 2.82 3.134 4.47 4.935.57.435-.319.87-.637 1.863-.926.75.055.94.08 1.13.105.254.894.51 1.788 1.078 2.858"/><path fill="#785636" d="M206.539 122.102c-2.059-1.32-3.95-2.643-6.12-4.14.662-2.519 1.602-4.864 2.862-7.753 1.433-.719 2.544-.893 3.656-1.066-.024 2.66-.049 5.32-.07 8.669.047.853.093 1.019.138 1.184-.045.448-.09.895-.132 1.926.054.752.103.919.152 1.086 0 0-.32.091-.486.094"/><path fill="#E2862A" d="M154.58 153.529c-.764-3.474-1.17-7.03-1.571-11.016 3.378 1.384 6.752 3.2 11.138 5.562-3.728 2.175-6.468 3.774-9.566 5.454"/><path fill="#2BB6E2" d="M92.923 202.605a813 813 0 0 1-.247 22.041c-.374.313-.909.155-.907.002.068-8.492.18-16.983.67-25.596.378.972.376 2.065.484 3.553m84.933-54.721c-.45-8.224-.551-16.599-.599-25.442.549-.082 1.48.31 1.474.688-.112 8.201-.329 16.402-.875 24.754"/><path fill="#E48329" d="M94.14 158.487c3.56-1.328 7.305-2.39 11.438-3.381-.915 2.452-2.218 4.834-3.564 7.565-2.592-1.073-5.14-2.495-7.874-4.184"/><path fill="#14BFF7" d="M258.975 132.956s-.188.238-.653.258c-.736.315-1.008.61-1.279.905-1.687 1.004-3.375 2.007-5.39 3.044-.99-.788-1.654-1.61-2.455-2.726.902-.997 1.941-1.7 3.663-2.424 1.51-.675 2.336-1.328 3.162-1.981.797-.588 1.594-1.176 2.918-1.578 1.422 1.035 2.317 1.882 3.213 2.73 0 0-.174-.129-.445-.132-1.092.633-1.913 1.268-2.734 1.904"/><path fill="#2BB6E2" d="M211.394 233.052c.016 6.111-.344 12.346-1.07 18.71-.012-6.108.34-12.347 1.07-18.71"/><path fill="#988A65" d="M116.877 239.64c-.222-9.025-.444-18.05-.626-27.515.575 1.371 1.507 3.169 1.57 4.997.21 5.978.103 11.968.11 18.79.015 1.587.039 2.338.062 3.09 0 0-.14.294-.377.508-.404.186-.572.158-.74.13"/><path fill="#2BB6E2" d="M92.65 130.084c.287 6.307.192 12.675-.027 19.5-.571.027-1.4-.394-1.41-.835-.129-5.386-.19-10.776-.122-16.162.01-.82.766-1.629 1.56-2.503m81.394 44.793.751 4.702c.666.215 1.712.553 2.986 1.154.148.57-.012.826-.459 1.137-1.544.253-2.883.402-4.704.189l-3.212-2.417c1.263-1.308 2.526-2.616 3.957-4.316.339-.412.51-.43.681-.45m-25.041-36.333c-.594-1.25-1.383-2.922-1.717-4.68-.505-2.658-.693-5.376-1.219-8.436.837 1.203 2.456 2.664 2.783 4.371.513 2.674.152 5.515.153 8.745m-1.161 108.342c-.42-3.247-.495-6.64-.436-10.476.35 3.148.565 6.74.436 10.476m53.55-85.863c-.5-1.087-.283-2.427-.848-3.178-.924-1.228-2.357-2.072-3.772-3.373 2.153.776 4.88 1.408 6.766 3.022 2.802 2.398.41 3.13-2.146 3.529"/><path fill="#11C1F8" d="M169.127 179.695c1.19.631 2.1 1.316 3.183 2.419.173.417.13.424-.209.282-.934.393-1.529.927-2.124 1.462-.666.48-1.331.958-2.302 1.469-.668-.548-1.032-1.128-1.294-2.181.283-1.01.464-1.546.645-2.083.607-.438 1.215-.876 2.101-1.368"/><path fill="#2BB6E2" d="M129.016 149.454c-1.905-.707-3.876-1.76-6.056-3.077a36.6 36.6 0 0 1 6.056 3.077m-29.064 51.824c-2.03-.628-4.142-1.57-6.61-2.562 1.938.715 4.233 1.481 6.61 2.562m113.017-37.738c-1.687-.006-3.443-.355-5.599-.663 1.76-3.747 3.597-.689 5.599.664m-66.194 69.026c-1.732 1.108-3.707 1.962-6.03 2.87 1.697-1.004 3.742-2.064 6.03-2.87m87.198-22.196c-1.648-.61-3.348-1.555-5.136-2.83 1.637.612 3.36 1.554 5.136 2.83m-16.988 20.086c1.407.338 2.812 1.04 4.41 2.025-1.03.359-2.255.434-3.937.514L217 233c-.006-.727-.012-1.454-.016-2.544m-72.684-1.468c1.105-.966 2.58-1.914 4.393-2.895-1.117.948-2.57 1.931-4.393 2.895"/><path fill="#3BAFD2" d="M206.946 108.799c-1.12.517-2.232.691-3.637 1.055-.47.173-.649.156-1.091.095 1.403-.527 3.07-1.01 4.728-1.15"/><path fill="#2BB6E2" d="M207.056 190.332c1.542.43 3.131 1.216 4.887 2.289-1.502-.453-3.171-1.193-4.887-2.289m-9.791-26.36c.78-.984 1.932-1.948 3.413-2.928-.794.971-1.918 1.96-3.413 2.928m15.69 33.658c-1.549-.43-3.149-1.21-4.917-2.28 1.51.45 3.188 1.191 4.917 2.28m-31.159-42.56c-1.261.23-2.982.419-4.884.328 1.353-.31 2.89-.338 4.884-.327m11.403 27.125c.497-.1 1.16.105 2.162.398 1.075.653 1.812 1.22 2.66 2.041-1.477-.54-3.067-1.337-4.822-2.439m-28.245-68.586c-1.36-.35-2.775-1.064-4.378-2.07 1.316.375 2.82 1.04 4.378 2.07m-60.013 56.072c-1.528-.46-3.1-1.27-4.855-2.361 1.483.483 3.146 1.246 4.855 2.36m55.089-63.006c1.25.329 2.56 1.002 4.055 1.941-1.21-.354-2.6-.976-4.054-1.941m38.764 33.6c.701-.344 1.212-.477 1.99-.63-.86.778-1.987 1.576-3.45 2.363.2-.515.735-1.019 1.46-1.733m-1.899 28.925c-.813.411-1.477.635-2.49.9.7-.684 1.749-1.408 3.178-2.126.074.351-.233.695-.688 1.227m-28.85 89.419c1.465.406 3.001 1.137 4.71 2.138-1.431-.425-3.034-1.118-4.71-2.138"/><path fill="#36AED4" d="M266.61 204.673c-.335-1.414-.455-3.114-.56-5.24.269 1.366.522 3.16.56 5.24"/><path fill="#2BB6E2" d="M144.972 154.496c.86.132 1.767.575 2.85 1.27-.818-.153-1.81-.556-2.85-1.27m-19.574 89.428c-.682.664-1.721 1.337-3.081 2.038.693-.659 1.708-1.344 3.08-2.038m41.406-23.873c-.739.77-1.861 1.509-3.321 2.317.754-.737 1.846-1.542 3.321-2.317m-29.149-55.968c.655-.694 1.668-1.402 3-2.13-.668.693-1.655 1.404-3 2.13m-16.091 81.899c.122.372-.18.731-.62 1.293-1.064-.079-1.988-.359-3.056-.9.988-.31 2.12-.358 3.676-.393m28.484-21.236c.796-.427 1.467-.682 2.492-.998-.683.719-1.72 1.5-3.115 2.283-.36.002-.34-.429-.318-.644.321-.189.587-.273.941-.641m-49.097-91.379c-1.236-.354-2.548-1.033-4.04-1.98 1.202.372 2.583 1.014 4.04 1.98m23.637 106.717c.685-.681 1.728-1.375 3.094-2.068-.697.686-1.717 1.37-3.094 2.068m12.153-37.054c.354.01.31.418.266.619-.815.533-1.586.866-2.673 1.22.473-.6 1.262-1.225 2.406-1.84m-32.769.528c-.876-.091-1.816-.525-2.904-1.24.848.112 1.844.505 2.904 1.24m10.058 1.918c.88.075 1.833.492 2.943 1.188-.852-.096-1.862-.47-2.943-1.188m14.159-1.525c.469-.662 1.308-1.294 2.466-1.958-.485.642-1.29 1.316-2.466 1.958m65.765-17.38c-.919-.057-1.908-.474-3.086-1.16.879.086 1.948.443 3.086 1.16m6.944 4.164c-.926-.1-1.884-.577-3.025-1.325.876.135 1.934.542 3.025 1.325m-18.842 19.556c.906.112 1.858.59 2.977 1.345-.866-.14-1.898-.56-2.977-1.344m-21.25-21.245c-.484.639-1.332 1.25-2.5 1.887.5-.62 1.317-1.267 2.5-1.887m-5.883 4.275c-.543.335-.929.473-1.62.616.484-.642 1.274-1.29 2.42-1.92.024.381-.31.744-.8 1.304m-57.871 2.091c.864.108 1.784.561 2.87 1.283-.828-.134-1.82-.536-2.87-1.283m34.088-27.48c.484-.659 1.343-1.282 2.523-1.938-.503.635-1.326 1.304-2.523 1.938m49.678 13.344c.277-.3.456-.313.904-.297.099.862-.071 1.695-.412 2.796-.31-.559-.45-1.385-.492-2.5m44.127 23.36c-.912-.081-1.882-.525-3.033-1.242.87.111 1.923.495 3.033 1.242M158.041 162.2a4.37 4.37 0 0 1 2.774 1.365c-1.101.377-1.958.406-2.815.435.005-.48.01-.96.041-1.8m-.183 4.155a67 67 0 0 0-2.297-.736c-.338-.078-.327-.418-.298-.585.74-.443 1.45-.718 2.438-.62.236.895.196 1.418.157 1.941m58.096 33.149c-.851-.096-1.763-.521-2.803-1.23.828.112 1.786.506 2.803 1.23m-49.25-18.438c.14.534-.04 1.07-.463 1.77-.726.163-1.212.161-2.06.121.491-.655 1.346-1.272 2.523-1.891m38.321 42.404c.366-.35.807-.363 1.577-.338.667.458 1.005.88 1.406 1.57-.928-.119-1.918-.506-2.983-1.231m-31.243-7.431c-.481.642-1.323 1.26-2.485 1.886.495-.632 1.31-1.27 2.485-1.886m-49.746-73.624c.866.099 1.792.543 2.881 1.255-.832-.125-1.827-.517-2.881-1.255m34.177 78.543c.056-.43.476-.832 1.053-1.491.504-.326.853-.398 1.47-.461-.54.664-1.35 1.32-2.523 1.952m39.832-1.439c.681-.069 1.424.195 2.464.509.297.05.43.499.476.728-.928-.148-1.903-.526-2.94-1.237m-46.061-79.016c-.87-.085-1.809-.501-2.868-1.21.853.1 1.826.488 2.868 1.21m46.784 83.407c-.915-.073-1.956-.464-3.332-.922-.334-.066-.432-.508-.464-.732 1.202.296 2.436.816 3.796 1.654m-37.073-.909c-.469.608-1.281 1.2-2.404 1.795.48-.602 1.27-1.206 2.404-1.795m48.336 3.452c.886.079 1.84.504 2.957 1.204-.855-.101-1.871-.48-2.957-1.204m10.676-105.972c-.507.647-1.258 1.096-2.338 1.582.478-.568 1.286-1.175 2.338-1.582M102.049 232.553c.872.061 1.812.456 2.901 1.127-.845-.08-1.839-.437-2.901-1.127m4.18 2.369c.942.096 1.977.534 3.344 1.038.332.065.452.525.496.76-1.22-.33-2.483-.893-3.84-1.798m124.821 3.524c.877.086 1.814.519 2.922 1.22-.84-.111-1.85-.492-2.921-1.22m-79.095 15.077c-.865-.093-1.787-.52-2.827-1.236.845.108 1.808.506 2.827 1.236m32.831 12.519c-.475.644-1.313 1.264-2.47 1.9.49-.631 1.298-1.278 2.47-1.9m-35.776-14.374c-.585-.482-1.16-1.285-1.629-2.394.617.486 1.128 1.28 1.63 2.394m32.517 16.311c.417.01.417.394.357.576-1.405.256-2.751.33-4.501.3-.403-.103-.477-.456-.47-.636 1.404-.204 2.8-.228 4.614-.24m40.436-99.229c-.547.099-1.109-.095-1.805-.561.507-.093 1.149.087 1.805.56m11.038 74.875c-.516.088-1.061-.105-1.783-.537.467-.074 1.11.092 1.783.537m-126.933-77.25c.7.002 1.47.378 2.44 1.013-.656-.04-1.512-.34-2.44-1.013m31.681 66.43c.305-.583.976-1.107 1.971-1.645-.319.558-.962 1.131-1.97 1.645m-3.709-84.561c.535-.082 1.079.13 1.775.599-.487.07-1.127-.118-1.775-.6m82.994 86.333c-.755-.053-1.51-.421-2.431-1.069.401-.344.97-.41 1.967-.49.428-.015.427-.016.426-.017.012.42.025.84.038 1.576m-106.973-31.419c.552-.108 1.103.092 1.8.552-.502.092-1.151-.077-1.8-.552m111.956 30.122c.52-.07 1.06.15 1.77.617-.47.055-1.11-.137-1.77-.617m-68.967 16.912c.547-.103 1.1.097 1.799.56-.501.089-1.146-.085-1.799-.56m-12.981-14.83c-.282.578-.889 1.03-1.792 1.472.292-.538.88-1.069 1.792-1.472m83.113-86.102c.275-.585.727-.94 1.476-1.328-.235.498-.766 1.027-1.476 1.328m11.847 91.312c.11-.335.276-.389.932-.493.664-.079.836-.107 1.009-.136-.629.304-1.257.607-1.94.63m-70.979 15.862c.698-.006 1.475.352 2.44.982-.661-.025-1.511-.32-2.44-.982m-41.982-16.312c.447-.218.887-.13 1.659.007.03.522-.274.996-.578 1.47-.363-.39-.726-.78-1.081-1.477"/><path fill="#36AED4" d="M226.863 171.67c-.797-.148-1.741-.594-2.853-1.315.791.155 1.75.585 2.853 1.314"/><path fill="#2BB6E2" d="M223.973 238.534c-.635.024-1.34-.287-2.194-.855.61.003 1.367.26 2.194.855M169.98 116.548c-.637.026-1.345-.287-2.203-.854.611.004 1.372.26 2.204.854M158.94 257.471c-.673-.002-1.423-.35-2.344-.972.642.027 1.454.326 2.343.972m38.094-2.562c-.194-.42-.078-.813.116-1.502.482-.222.886-.148 1.589 0-.266.56-.83 1.045-1.705 1.502M97.052 229.44c.691.003 1.46.367 2.417 1.003-.655-.033-1.497-.336-2.417-1.002"/><path fill="#3BAFD2" d="M190.239 145.975c.507-.619 1.34-1.218 2.486-1.827-.512.609-1.337 1.227-2.486 1.827"/><path fill="#2BB6E2" d="M109.405 184.913c-.432.506-1.163 1.022-2.17 1.553.44-.505 1.156-1.023 2.17-1.553m49.663 68.722c.682-.047 1.457.246 2.406.81-.655.025-1.484-.223-2.406-.81m7.979-68.307c-.28.58-.89 1.047-1.798 1.517.29-.54.88-1.086 1.798-1.517m-3.013-41.884c.624-.05 1.316.245 2.186.762-.588.01-1.353-.205-2.186-.762m41.977 12.01c.512-.098 1.053.076 1.765.488-.464.086-1.1-.065-1.765-.488m5.147.75c.283-.593.738-.947 1.492-1.312-.241.51-.78 1.03-1.492 1.312"/><path fill="#36AED4" d="M266.526 222.753c-.29-.837-.367-1.9-.304-3.342.265.786.392 1.95.304 3.342"/><path fill="#2BB6E2" d="M129.063 145.393c.696.004 1.466.378 2.434 1.013-.654-.04-1.508-.342-2.434-1.013m22.924 17.267c-.526.144-1.082-.005-1.82-.381.474-.123 1.132-.018 1.82.38m-3.744-.464c-.31.567-.985 1.074-1.978 1.615.326-.536.97-1.105 1.978-1.615m41.602-11.417c-.334.515-.828.8-1.612 1.09.29-.438.87-.879 1.612-1.09m-18.835.818c-.503.119-1.046-.047-1.798-.414.447-.09 1.102.02 1.798.414m-32.979-1.066c.674-.002 1.438.343 2.379.96-.645-.024-1.466-.319-2.379-.96m-39.985-23.018c.878.067 1.826.473 2.924 1.155-.851-.089-1.853-.453-2.924-1.155m84.88-37.645c-.544.105-1.088-.1-1.79-.555.49-.084 1.14.08 1.79.555m-79.749 94.373c.272-.603.72-.97 1.468-1.355-.23.52-.761 1.055-1.468 1.355m24.779-69.706c-.686.003-1.457-.351-2.414-.978.652.025 1.491.323 2.414.978m102.202 34.631c-.277.592-.913 1.143-1.872 1.71.29-.574.901-1.163 1.872-1.71m-83.296 47.899c-.238.505-.789.996-1.616 1.536.25-.484.776-1.017 1.616-1.536m-3.866-73.674c-.581-.057-1.251-.422-2.08-1.036.558.077 1.274.403 2.08 1.036m-26.414 116.352c.462-.074.63-.046 1.047-.07-.59.22-1.427.491-2.426.471.254-.294.67-.297 1.38-.401m-15.359-41.85c.667.017 1.415.358 2.32.967-.64-.036-1.44-.34-2.32-.967"/><path fill="#36AED4" d="M240.572 236.21c.303.55.389 1.298.392 2.418-.258-.492-.434-1.355-.392-2.418"/><path fill="#2BB6E2" d="M118.241 238.821c-.271-.571-.295-1.322-.25-2.444.213.508.355 1.386.25 2.444M163.858 97.05c-.258.453-.81.89-1.631 1.358.266-.438.801-.906 1.63-1.358m29.916 124.011c-.7.033-1.503-.265-2.48-.835.677-.014 1.527.246 2.48.835m-19.561 40.946c.601-.214 1.313-.121 2.386-.04a6.2 6.2 0 0 1-2.386.04m-7.777-117.201c.754-.025 1.504.312 2.42.915-.697-.007-1.56-.28-2.42-.915m23.607 70.001c.563.023 1.21.33 1.993.877-.545-.038-1.227-.315-1.993-.877"/><path fill="#A78858" d="M236.044 215.09c-.174-.77-.14-1.496-.081-2.585.34.413.657 1.187.846 2.283-.128.323-.555.345-.765.302"/><path fill="#36AED4" d="M259.866 190.732q-.576.1-1.57-.552.578-.1 1.57.552m-16.658-18.792c.126-.396.584-.791 1.353-1.22-.132.384-.576.803-1.353 1.22"/><path fill="#2BB6E2" d="M150.293 190.98c.139-.36.59-.729 1.348-1.118-.141.357-.588.733-1.348 1.118m30.876 70.81c.376-.068.761.149 1.446.507-.28.02-.858-.102-1.446-.508m-80.589-71.818c-.14.334-.567.689-1.284 1.039.139-.342.567-.68 1.284-1.039m67.786 25.039q.206-.526 1.31-1.08-.207.524-1.31 1.08m33.614 6.595c.3-.31.578-.246.919.187-.232.138-.567.078-.92-.187m-80.288-8.445c.258.297.306.739.261 1.503-.218-.238-.344-.798-.26-1.503m1.787-2.186c-.1.33-.492.703-1.147 1.164.109-.314.483-.719 1.147-1.164m-2.389-3.071c.147-.393.638-.763 1.442-1.166-.158.375-.63.782-1.443 1.166m113.126-1.885c.461-.106 1.037.102 1.78.572-.443.09-1.054-.084-1.78-.572m-5.458.936c-.458.094-1.03-.125-1.769-.609.44-.078 1.048.11 1.769.61m-97.069-.925c-.153.304-.606.622-1.361.979.153-.296.607-.632 1.361-.98m-8.578.788c.135-.414.607-.772 1.387-1.147-.145.39-.597.796-1.387 1.147m10.507-1.8c-.146.298-.58.599-1.305.935.145-.287.58-.61 1.305-.935m31.498 11.894c.15-.393.643-.773 1.457-1.19-.157.378-.635.79-1.457 1.19m-40.013-11.135c.116-.456.596-.856 1.395-1.301-.13.423-.582.89-1.395 1.301M98.68 191.02c-.11.379-.545.771-1.271 1.236.12-.359.533-.79 1.27-1.235"/><path fill="#36AED4" d="M247.16 203.932c.152-.388.64-.751 1.442-1.133-.159.374-.633.765-1.442 1.133m10.63 27.871q.128-.574 1.047-1.084-.128.574-1.047 1.084"/><path fill="#2BB6E2" d="M131.278 201.966c.139-.367.594-.737 1.354-1.132-.143.36-.59.744-1.354 1.132m90.358 35.142c-.497.137-1.038-.074-1.749-.524.456-.1 1.08.038 1.75.524"/><path fill="#36AED4" d="M247.728 237.766c.09-.393.463-.752 1.102-1.12-.096.379-.458.766-1.102 1.12"/><path fill="#A78858" d="M236.98 239.607c-.18.363-.352.391-.78.358-.137-.587-.018-1.112.312-1.808.3.258.388.687.469 1.45"/><path fill="#2BB6E2" d="M136.144 199.244c-.065-.493.116-.733.66-.88-.026.342-.284.689-.66.88m76.029-6.1c.412-.059.94.156 1.594.634-.409.056-.943-.152-1.594-.634m-116.375.035c.347.248.438.65.632 1.348-.227-.2-.557-.698-.632-1.348m99.638-50.145q.209-.488 1.275-1.023-.21.488-1.275 1.023m-3.463 28.09c-.155.405-.672.79-1.516 1.229.167-.381.66-.815 1.516-1.23m-7.775.814c-.426.15-.616.125-1.086.039.195-.44.672-.818 1.462-1.231.162.315.011.666-.376 1.192m-51.396-.837c-.133.394-.6.776-1.38 1.188.14-.38.593-.791 1.38-1.189"/><path fill="#3BAFD2" d="M200.196 105.945c.126-.407.59-.793 1.36-1.229-.135.384-.578.817-1.36 1.229"/><path fill="#2BB6E2" d="M108.766 172.046c-.474.08-1.054-.166-1.8-.684.453-.062 1.073.148 1.8.684"/><path fill="#3BAFD2" d="M201.608 109.924c-.165.293-.616.572-1.363.855.162-.287.62-.578 1.363-.855"/><path fill="#2BB6E2" d="M199.588 166.97q-.227.48-1.313.989.228-.479 1.313-.989"/><path fill="#3BAFD2" d="M195.08 108.888c.15-.407.65-.779 1.468-1.186-.162.384-.64.803-1.468 1.186"/><path fill="#36AED4" d="M219.235 162.987c.484-.103 1.072.121 1.82.623-.466.087-1.09-.104-1.82-.623"/><path fill="#2BB6E2" d="M231.107 144.185c-.104-.173-.147-.609-.122-.826.206-.23.388-.245.81-.132a1.1 1.1 0 0 1-.688.958m-103.933-.003q.632-.127 1.67.559-.632.127-1.67-.56m34.797 9.947c-.139.426-.649.834-1.488 1.311.154-.397.636-.863 1.488-1.31m-29.845-7.063c.447-.086 1.038.122 1.776.613q-.67.125-1.776-.613m-19.209-32.961c-.144.405-.646.797-1.47 1.255.156-.378.633-.823 1.47-1.255m58.929 3.686c-.404.067-.942-.123-1.6-.584.408-.071.936.128 1.6.584m25.319 32.344c.41-.053.936.17 1.59.651-.407.048-.942-.164-1.59-.651m-58.337-29.287c-.425.081-.986-.116-1.694-.578.42-.077.989.112 1.694.578m35.154-29.721c-.15.417-.668.813-1.516 1.264.164-.39.656-.838 1.516-1.264m-22.196 43.993c.428.023.606.23.726.72-.274-.066-.58-.34-.726-.72"/><path fill="#36AED4" d="M246.068 135.948c.026-.305.291-.573.848-.864-.009.285-.309.593-.848.864"/><path fill="#2BB6E2" d="M158.9 99.854c.07.527-.119.761-.691.882.035-.349.306-.702.691-.882"/><path fill="#30ADD6" d="M225.596 117.944c.15.241.035.41-.368.403-.146-.079.245-.378.368-.403"/><path fill="#2BB6E2" d="M102.238 120.221c.04.262-.25.559-.85.936-.032-.246.243-.573.85-.936m125.903 116.313c.207-.27.472-.193.766.265-.204.2-.45.101-.766-.265"/><path fill="#3BAFD2" d="M188.74 117.013c.203.319.036.56-.522.678-.156-.312.024-.523.521-.678"/><path fill="#2BB6E2" d="M106.84 136.75q-.307.196-1.099-.351.31-.198 1.1.35m66.006-18.286c.12.171-.322.186-.322.186s-.383-.22-.48-.419c.198-.222.458-.135.802.233"/><path fill="#3BAFD2" d="M186.92 118.1c.023.235-.213.482-.715.724-.026-.24.215-.475.715-.723"/><path fill="#2BB6E2" d="M207.192 121.918c-.216-.077-.265-.244-.247-.664.183.023.298.299.247.664m12.532 114.256c-.052.2-.485.17-.605-.01.14-.183.398-.187.605.01m-12.55-117.262c-.214-.081-.26-.247-.235-.66.242-.082.432.07.575.258.03.04-.11.208-.34.402"/><path fill="#36AED4" d="M263.602 228.055c-.049-.01-.105-.264-.105-.264s.24-.1.273.027-.119.246-.168.237"/><path fill="#30ADD6" d="M223.039 119.163c.02.232-.243.479-.78.756-.019-.228.24-.485.78-.756"/><path fill="#2BB6E2" d="M99.193 122.191c.015.237-.282.499-.877.816-.01-.227.278-.509.877-.816m4.991-2.994c.01.245-.288.507-.89.798-.008-.24.286-.51.89-.798M205.88 228.505c-.223.241-.474.143-.72-.329.213-.168.44-.047.72.33m-63.75 1.659c-.03-.301.071-.437.422-.619.07.23-.11.507-.422.619m73.042-.893q.313-.226 1.139.302-.314.225-1.14-.302m-40.284-109.696c-.175.12-.506.044-.964-.263.185-.131.497-.032.964.263"/><path fill="#36AED4" d="M260.461 230.079c-.192-.257-.092-.427.325-.414.145.081-.205.398-.325.414"/><path fill="#3BAFD2" d="M185.616 118.917c.16.269.031.445-.408.46-.084-.253.058-.383.408-.46"/><path fill="#2BB6E2" d="M96.214 126.04c.235-.092.562.109 1.019.571-.223.082-.575-.098-1.02-.57m97.661 134.81c.026.301-.077.434-.428.608-.066-.231.116-.504.428-.608"/><path fill="#3BAFD2" d="M193.146 109.939c-.181-.348.023-.591.618-.711.159.341-.05.571-.618.71"/><path fill="#2BB6E2" d="M152.771 107.506c.043.242-.074.374-.427.625-.069-.166.1-.45.427-.625m53.686 146.454c.066-.026.12.24.12.24s-.22.157-.314.06c-.095-.096.127-.273.194-.3m-2.339 1.214c.015.246-.261.51-.831.779-.016-.25.262-.506.83-.779m-26.977 6.736c-.188-.126-.195-.295-.068-.68.256-.021.398.166.485.376.02.046-.153.172-.417.304m-9.494-166.927c.154.237.03.414-.398.454-.069-.215.073-.34.398-.454m1.207 168.393c.1.143-.29.19-.29.19s-.321-.227-.382-.414c.182-.172.393-.082.672.224m21.674-.416c.164.205.083.358-.273.352-.122-.078.18-.322.273-.351m-15.656 3.701c-.192.135-.55.051-1.05-.283.2-.146.543-.041 1.05.283m.919.551c.096.096-.216.203-.216.203s-.283-.17-.334-.328c.136-.144.304-.081.55.125M170.274 93.23c.035.275-.266.568-.884.913-.029-.263.26-.579.884-.912"/><path fill="#3BAFD2" d="M195.713 112.971c.175.313.014.518-.502.562-.117-.301.056-.47.502-.562"/><path fill="#30ADD6" d="M246.862 114.664q-.295.207-1.028-.286.294-.208 1.028.286"/><path fill="#3BAFD2" d="M193.801 114.043c.037.22-.162.466-.613.706-.147-.33.062-.555.613-.706"/><path fill="#2BB6E2" d="M174.153 114.627c.183-.288.422-.233.676.213-.18.176-.392.088-.676-.213m-6.508.606c-.076.202-.44.209-.546.06.137-.186.38-.224.546-.06m-36.919 125.794c.183.276.03.51-.484.642-.13-.273.04-.467.484-.642m98.177.583c-.182.105-.502.01-.92-.326.245-.238.539-.116.92.325"/><path fill="#30ADD6" d="M243.794 112.888c-.234.142-.608 0-1.142-.403.227-.135.614-.008 1.142.403"/><path fill="#2BB6E2" d="M170.098 112.372c.184-.105.5 0 .92.343-.248.242-.545.117-.92-.343m-53.953-.184q.049.379-.815.866-.049-.379.815-.866m1.902-1.048c.016.227-.238.477-.767.736-.018-.232.24-.473.767-.737"/><path fill="#36AED4" d="M251.964 166.828q-.048-.369.75-.799.049.368-.75.799"/><path fill="#2BB6E2" d="M111.778 173.901c-.238.142-.627-.009-1.193-.425.229-.132.636 0 1.193.425m108.379 23.686c.188-.284.449-.225.746.22-.19.197-.427.11-.746-.22M124.12 171.89c-.036-.215.17-.486.642-.77.044.23-.177.472-.641.77m-9.007-.547c.187-.112.515-.01.96.336-.196.121-.508 0-.96-.336m-11.032 28.095c.17-.104.484-.018.903.297-.227.23-.516.117-.903-.297m30.172-29.214c.029.265-.268.546-.875.88-.024-.253.262-.559.875-.88"/><path fill="#36AED4" d="M230.144 169.229q.32-.195 1.043.368-.32.194-1.043-.368"/><path fill="#2BB6E2" d="M217.85 200.742q-.303.19-1.063-.355.304-.189 1.064.355m-106.677-31.521q.318-.202 1.119.36-.318.202-1.12-.36m109.627 33.1c-.025.222-.494.139-.65-.04.12-.18.397-.181.65.04m-99.635-28.849c.014-.228.157-.337.569-.45.033.187-.203.38-.569.45"/><path fill="#36AED4" d="M226.104 166.768c.16-.262.354-.225.533.159-.17.159-.33.09-.533-.159"/><path fill="#2BB6E2" d="M224.144 165.56c.201-.276.456-.203.734.255-.194.189-.429.091-.734-.254m-85.295-10.197c.098.137-.283.185-.283.185s-.315-.22-.37-.404c.178-.164.381-.076.653.219m-31.995 50.088c.109.166-.324.196-.324.196s-.358-.246-.433-.45c.204-.2.445-.102.757.254m97.312-51.244q.325-.194 1.09.386-.324.192-1.09-.386m-9.346-.959c.088.1-.229.2-.229.2s-.275-.186-.31-.349c.146-.14.309-.07.54.149m-50.637.511c.14-.293.34-.269.54.144-.153.142-.313.07-.54-.144m-7.42.151c-.247.169-.655.036-1.254-.364.237-.157.665-.047 1.254.364m65.091 37.649c.127.189-.36.219-.36.219s-.416-.257-.51-.482c.228-.247.507-.147.87.263"/><path fill="#36AED4" d="M256.77 188.896c-.235.178-.623.065-1.204-.29.22-.16.635-.081 1.203.29"/><path fill="#2BB6E2" d="M96.3 187.977c-.172-.257-.03-.473.458-.588.108.247-.055.422-.458.588"/><path fill="#36AED4" d="M251.746 185.968c-.248.18-.634.052-1.213-.32.23-.158.652-.073 1.213.32"/><path fill="#2BB6E2" d="M198.226 185.14c.238-.165.64-.042 1.228.344-.231.157-.647.05-1.228-.344m-37.87-.132c-.178-.247-.055-.442.402-.51.09.228-.055.372-.402.51m24.914-2.898c-.047-.195.297-.266.469-.306s.272.331.288.523c.017.191-.385.219-.385.219s-.323-.24-.371-.435"/><path fill="#36AED4" d="M242.811 181.07c.06.071-.157.264-.157.264s-.252-.144-.255-.29.352-.046.412.026m1.791-4.99c.18.089.194.262.169.692-.194.08-.371-.084-.492-.282-.034-.056.1-.214.323-.41"/><path fill="#2BB6E2" d="M187.678 151.972c.14.238.01.416-.42.452-.06-.218.088-.342.42-.452"/><path fill="#36AED4" d="M234.897 176.423c.101.173-.335.225-.335.225s-.358-.255-.43-.463c.215-.226.46-.135.765.238"/><path fill="#2BB6E2" d="M114.378 176.935c-.151.085-.201-.411-.145-.654.192-.072.348.086.45.275.029.054-.099.193-.305.379m30.824 16.998c-.18-.304.01-.56.594-.716.122.287-.084.509-.594.716"/><path fill="#36AED4" d="M248.2 173.253c.017.255-.276.51-.865.803-.013-.242.27-.523.864-.803"/><path fill="#2BB6E2" d="M152.166 194.186c.007.237-.286.488-.875.766-.006-.233.284-.492.875-.766"/><path fill="#36AED4" d="M237.042 173.207c.133-.177.317-.176.723-.012-.075.172-.373.18-.723.012m7.162-36.25c-.189-.32-.007-.572.568-.701.14.315-.058.53-.568.7m-10.935 5.966c-.07-.202.075-.505.487-.841.186.292.007.55-.487.84"/><path fill="#42ACCA" d="M204.248 142.36c.023.287-.27.54-.86.814-.015-.268.264-.56.86-.815"/><path fill="#2BB6E2" d="M163.118 217.918c-.168-.32.033-.564.62-.684.121.31-.091.522-.62.684m23.749-.428c.109.174-.342.207-.342.207s-.363-.27-.435-.485c.218-.206.464-.1.777.277m9.278.815q.294-.196 1.064.314-.295.196-1.064-.314"/><path fill="#36AED4" d="M236.324 140.992c-.049-.224.08-.506.443-.69.138.342-.03.52-.443.69m11.702-1.833c.021.243-.231.502-.763.756-.023-.25.233-.496.763-.756m-9.746.802c-.055-.222.084-.511.473-.735.15.334-.027.535-.474.735"/><path fill="#2BB6E2" d="M112.862 140.158c-.169.174-.336.142-.68-.074.11-.167.395-.15.68.074"/><path fill="#36AED4" d="M249.892 138.09c.032.218-.177.468-.64.717-.138-.326.08-.554.64-.716"/><path fill="#3BAFD2" d="M181.427 145.087c.205.086.27.254.202.657-.46.03-.528-.24-.202-.657"/><path fill="#2BB6E2" d="M154.272 222.975c-.163-.265-.01-.489.485-.609.114.265-.057.447-.485.609m51.248-85.987c-.185-.207-.085-.401.343-.51.082.185-.048.33-.344.51M102.58 188.96c.148.214.054.363-.307.34-.123-.08.207-.314.306-.34m1.212-54.095c-.237.153-.636.014-1.224-.386.227-.143.644-.025 1.224.386m96.092 89.851c-.198.123-.528.02-.973-.324.204-.128.522-.015.973.324"/><path fill="#E27922" d="M92.997 225.28c.306-.04.546.22.6.72-.186.24-.643.198-.643.198a5 5 0 0 1 .043-.917"/><path fill="#36AED4" d="M266.272 225.947c-.18-.112-.189-.29-.078-.708.237-.044.38.144.46.356.023.06-.134.188-.382.352"/><path fill="#2BB6E2" d="M93.027 226.375c-.073-.177.384-.135.612-.107s.181.378.127.546c-.317.11-.52-.034-.74-.439m31.91-16.261c.02.201-.207.437-.684.689-.118-.308.112-.532.684-.69m46.869-57.853c.098.11-.24.204-.24.204s-.295-.187-.348-.355c.15-.152.33-.082.588.151m-37.943.256c.114.18-.343.189-.343.189s-.375-.262-.458-.475c.217-.212.474-.105.801.286m-1.037-.751c-.21.138-.581.02-1.124-.347.207-.134.585-.022 1.124.347m-3.012 55.356c.057.195-.116.482-.54.828-.17-.28.017-.545.54-.828m90.229-56.239c-.019-.21.22-.454.726-.721q.03.316-.726.72m16.202 56.224c.243-.171.647-.047 1.24.341-.235.162-.657.058-1.24-.34m-107.443.964c.154.288-.025.529-.567.645-.1-.287.099-.476.567-.646m-2.062 1.01c.144.268-.022.468-.516.562-.091-.245.087-.42.516-.562m49.749.864c-.178-.194-.066-.438.352-.713.152.193.03.424-.352.713m-73.339-79.676q.301-.191 1.07.35-.302.191-1.07-.35M129.85 150.3c.081.115-.258.187-.258.187s-.267-.222-.29-.394c.164-.129.327-.04.548.208"/><path fill="#3BAFD2" d="M182.024 149.495c.109-.166.281-.174.687-.068-.053.151-.338.188-.687.068"/><path fill="#2BB6E2" d="M172.7 212.752c-.036-.28.27-.575.895-.931.029.264-.262.59-.895.93m3.717-62.868c-.112-.014.199-.31.409-.35.103.175-.066.31-.41.35"/><path fill="#36AED4" d="M241.53 212.069q.34.312-.292.874-.375-.32.291-.874"/><path fill="#42ACCA" d="M195.548 148.098c.234.052.29.218.404.642-.156-.005-.368-.266-.404-.642"/><path fill="#3BAFD2" d="M184.49 149.11c-.164-.246-.073-.392.284-.341.108.098-.185.342-.284.34"/><path fill="#2BB6E2" d="M176.94 215.849c-.133.14-.298.1-.678-.078.073-.126.36-.114.679.078m5.912-.396c.097.12-.355.26-.589.227-.083-.373.159-.477.59-.227"/><path fill="#30ADD6" d="M262.443 131.183c-1.185-.847-2.08-1.694-3.208-2.784.86-.96 1.951-1.678 3.36-2.473.599 1.134.879 2.343 1.306 3.9-.292.685-.73 1.02-1.458 1.357m-1.514-8.455c-1.532-.482-3.087-1.301-4.798-2.41 1.488.497 3.131 1.286 4.798 2.41m-6.965-4.129c-1.331-.341-2.724-1.039-4.308-2.017 1.289.367 2.768 1.014 4.308 2.017m8.814 5.357c-.453.083-1.008-.138-1.7-.63.442-.073 1.02.126 1.7.63"/><path fill="#36AED4" d="M255.697 130.024c-.5.661-1.327 1.314-2.52 1.923.487-.673 1.34-1.302 2.52-1.923"/><path fill="#1BBCF1" d="M158.062 166.597c-.165-.765-.125-1.288-.074-2.204.869-.422 1.726-.45 3.007-.544 1.524.418 2.623.902 4.018 1.934.887.758 1.478.969 2.068 1.18 2.162 1.126 4.324 2.253 6.704 3.91.217.731.216.93.215 1.13.005.72.01 1.44.03 2.517-.156.376-.327.394-.755.443-.452-.004-.647-.038-1.178-.395-.511-.489-.72-.587-.96-.617 0 0-.092.026-.238-.24-.46-.39-.774-.514-1.087-.639-.487-.204-.973-.41-1.773-1.127-1.282-.935-2.25-1.357-3.218-1.779 0 0 .09-.044-.038-.3-.732-.437-1.335-.617-1.938-.797-1.526-.743-3.053-1.487-4.783-2.472"/><path fill="#2BB6E2" d="M180.6 172.928c-1.43 3.905-2.997 2.256-4.563-.564 1.376-.055 2.785.253 4.564.564m-6.268-.918c-.332-.206-.33-.406-.315-.905.58-.087 1.143.126 1.843.615-.307.284-.751.291-1.528.29m-7.403-5.319c-.44.06-1.03-.15-1.73-.67.454-.073 1.016.163 1.73.67m3.341 17.182c.301-.55.896-1.084 1.812-1.465-.292.595-.904 1.037-1.812 1.465"/><path fill="#36AED4" d="M259.295 132.951c.501-.63 1.322-1.266 2.505-1.842-.488.653-1.336 1.245-2.505 1.842m-1.95 1.139c-.03-.266.24-.56.826-.859.035.274-.245.551-.826.858"/><path fill="#2BB6E2" d="M182.265 181.022c.013-.176.28-.324.64-.303-.065.223-.226.277-.64.303m-17.276-10.582c.8.148 1.768.57 2.876 1.3-.81-.137-1.759-.582-2.876-1.3m-1.979-1.106c.438-.085 1.041.095 1.768.581-.452.099-1.027-.109-1.767-.581m8.181 4.81c.186-.163.394-.065.666.248.096.145-.3.196-.3.196s-.312-.25-.366-.444m-1.256-.838c.19-.109.503.016.957.358-.184.104-.508-.01-.957-.358"/></svg>